<svg width="397" height="319" viewBox="0 0 397 319" fill="none" xmlns="http://www.w3.org/2000/svg">
<g clip-path="url(#clip0_7_52)">
<path opacity="0.4" d="M8.70654 0L47.6362 72.6846H354.099L392.987 0H8.70654Z" fill="#0173E5"/>
<path opacity="0.6" d="M48.0508 82.63L86.9805 155.273H314.754L353.643 82.63H48.0508Z" fill="#02B5E5"/>
<path opacity="0.8" d="M87.395 165.219L126.283 237.903H275.41L314.298 165.219H87.395Z" fill="#02CAD7"/>
<path d="M126.739 246.315L165.627 319H236.066L274.954 246.315H126.739Z" fill="#02E29B"/>
<path d="M366.329 85.3236L361.934 80.9311V79.2735L365.707 83.0445V75.4611H366.868V83.0445L370.64 79.2735V80.9311L366.329 85.3236Z" fill="white"/>
<path d="M326.57 166.255L322.175 161.862V160.205L325.948 163.975V156.392H327.109V163.975L330.882 160.205V161.862L326.57 166.255Z" fill="white"/>
<path d="M287.226 247.849L282.831 243.456V241.799L286.604 245.569V237.986H287.765V245.569L291.537 241.799V243.456L287.226 247.849Z" fill="white"/>
<mask id="mask0_7_52" style="mask-type:luminance" maskUnits="userSpaceOnUse" x="0" y="55" width="44" height="59">
<path d="M43.5731 55.8188H0V113.917H43.5731V55.8188Z" fill="white"/>
</mask>
<g mask="url(#mask0_7_52)">
<path d="M29.0628 106.623V113.875L43.5733 99.3301L29.0628 84.8263V92.0782H25.4144C20.5984 92.0782 15.9796 90.1659 12.5741 86.7621C9.16865 83.3582 7.25549 78.7416 7.25549 73.9278C7.25549 69.114 9.16865 64.4973 12.5741 61.0935C15.9796 57.6896 20.5984 55.7773 25.4144 55.7773C18.6686 55.7773 12.1992 58.4558 7.4292 63.2236C2.65923 67.9913 -0.0205078 74.4578 -0.0205078 81.2004C-0.0205078 87.943 2.65923 94.4094 7.4292 99.1772C12.1992 103.945 18.6686 106.623 25.4144 106.623H29.0628Z" fill="white"/>
</g>
<mask id="mask1_7_52" style="mask-type:luminance" maskUnits="userSpaceOnUse" x="39" y="146" width="44" height="59">
<path d="M82.9173 146.074H39.3442V204.172H82.9173V146.074Z" fill="white"/>
</mask>
<g mask="url(#mask1_7_52)">
<path d="M68.4068 196.92V204.172L82.9173 189.626L68.4068 175.123V182.374H64.7584C59.9424 182.374 55.3236 180.462 51.9181 177.058C48.5127 173.654 46.5995 169.038 46.5995 164.224C46.5995 159.41 48.5127 154.794 51.9181 151.39C55.3236 147.986 59.9424 146.074 64.7584 146.074C58.0181 146.074 51.554 148.75 46.7879 153.514C42.0218 158.278 39.3442 164.739 39.3442 171.476C39.3442 178.213 42.0218 184.674 46.7879 189.438C51.554 194.202 58.0181 196.878 64.7584 196.878L68.4068 196.92Z" fill="white"/>
</g>
<mask id="mask2_7_52" style="mask-type:luminance" maskUnits="userSpaceOnUse" x="78" y="227" width="45" height="59">
<path d="M122.262 227.461H78.6885V285.559H122.262V227.461Z" fill="white"/>
</mask>
<g mask="url(#mask2_7_52)">
<path d="M107.751 278.265V285.517L122.262 270.972L107.751 256.468V263.72H104.103C99.2866 263.72 94.6678 261.808 91.2624 258.404C87.8569 255 85.9437 250.383 85.9437 245.569C85.9437 240.756 87.8569 236.139 91.2624 232.735C94.6678 229.331 99.2866 227.419 104.103 227.419C97.3624 227.419 90.8982 230.095 86.1321 234.859C81.366 239.623 78.6885 246.084 78.6885 252.821C78.6885 259.558 81.366 266.02 86.1321 270.784C90.8982 275.547 97.3624 278.224 104.103 278.224L107.751 278.265Z" fill="white"/>
</g>
<path d="M177.062 30.9552L173.915 22.9491H174.773L177.443 30.0394L180.138 22.9491H180.996L177.858 30.9552H177.062Z" fill="black"/>
<path d="M183.214 22.829C183.214 22.9841 183.153 23.133 183.044 23.2434C182.991 23.2994 182.927 23.3439 182.855 23.3738C182.784 23.4038 182.707 23.4186 182.63 23.4174C182.471 23.4174 182.32 23.3545 182.208 23.2426C182.096 23.1307 182.033 22.9789 182.033 22.8207C182.033 22.6624 182.096 22.5106 182.208 22.3987C182.32 22.2868 182.471 22.2239 182.63 22.2239C182.707 22.2227 182.784 22.2376 182.855 22.2675C182.927 22.2975 182.991 22.3419 183.044 22.398C183.1 22.4546 183.144 22.522 183.174 22.5961C183.203 22.6701 183.217 22.7494 183.214 22.829ZM182.203 30.9552V24.6191H183.032V30.9552H182.203Z" fill="black"/>
<path d="M184.583 26.372C184.58 26.115 184.638 25.8611 184.751 25.6302C184.864 25.3993 185.029 25.1979 185.233 25.0418C185.704 24.6701 186.292 24.479 186.892 24.5031C187.464 24.4681 188.027 24.6568 188.463 25.0294C188.855 25.4129 189.078 25.9359 189.085 26.4839H188.256C188.257 26.3003 188.221 26.1185 188.149 25.9498C188.076 25.781 187.97 25.6292 187.836 25.5037C187.702 25.3783 187.543 25.2821 187.37 25.2211C187.197 25.1601 187.013 25.1358 186.83 25.1495C186.455 25.1267 186.085 25.2417 185.789 25.4728C185.671 25.5664 185.576 25.6856 185.511 25.8212C185.445 25.9568 185.411 26.1054 185.412 26.256C185.405 26.3895 185.426 26.5231 185.474 26.648C185.522 26.7729 185.595 26.8864 185.689 26.9811C185.885 27.1643 186.127 27.2892 186.39 27.3417C186.667 27.4025 186.972 27.4757 187.306 27.5613C187.641 27.6469 187.946 27.7381 188.223 27.8348C188.505 27.932 188.75 28.1145 188.923 28.3569C189.119 28.6414 189.216 28.9818 189.201 29.3266C189.203 29.5699 189.146 29.8101 189.035 30.0266C188.923 30.243 188.761 30.4294 188.563 30.5698C188.079 30.9107 187.496 31.0826 186.904 31.0588C186.304 31.0953 185.712 30.9045 185.246 30.5242C185.043 30.3402 184.879 30.1167 184.765 29.8673C184.651 29.6179 184.589 29.348 184.583 29.0738H185.412C185.413 29.2537 185.45 29.4315 185.521 29.5967C185.592 29.7619 185.696 29.911 185.826 30.0352C186.125 30.297 186.516 30.4309 186.913 30.4082C187.293 30.4318 187.671 30.3283 187.986 30.114C188.106 30.0275 188.203 29.9134 188.27 29.7814C188.336 29.6494 188.37 29.5033 188.368 29.3556C188.375 29.2214 188.354 29.0872 188.306 28.9617C188.258 28.8361 188.184 28.7218 188.09 28.6263C187.894 28.4434 187.652 28.3173 187.389 28.2616L186.473 28.0337C186.144 27.9481 185.839 27.8597 185.557 27.7685C185.261 27.6755 185.004 27.4873 184.826 27.2332C184.649 26.9791 184.56 26.6734 184.574 26.3637L184.583 26.372Z" fill="black"/>
<path d="M191.78 22.829C191.78 22.9841 191.719 23.133 191.61 23.2434C191.556 23.2994 191.492 23.3439 191.421 23.3738C191.349 23.4038 191.273 23.4186 191.195 23.4174C191.037 23.4174 190.885 23.3545 190.773 23.2426C190.661 23.1307 190.598 22.9789 190.598 22.8207C190.598 22.6624 190.661 22.5106 190.773 22.3987C190.885 22.2868 191.037 22.2239 191.195 22.2239C191.273 22.2227 191.349 22.2376 191.421 22.2675C191.492 22.2975 191.556 22.3419 191.61 22.398C191.666 22.4546 191.71 22.522 191.739 22.5961C191.768 22.6701 191.782 22.7494 191.78 22.829ZM190.772 30.9552V24.6191H191.601V30.9552H190.772Z" fill="black"/>
<path d="M196.145 25.278H194.391V29.4592C194.367 29.6972 194.434 29.9354 194.578 30.1264C194.765 30.2747 195.004 30.3432 195.241 30.317H196.145V30.9552H195.067C194.078 30.9552 193.583 30.4565 193.583 29.4592V25.278H192.7V24.6191H193.583V23.032H194.412V24.6233H196.166L196.145 25.278Z" fill="black"/>
<path d="M197.725 30.1305C197.133 29.4759 196.821 28.6166 196.854 27.7353C196.834 27.3064 196.901 26.8778 197.05 26.475C197.199 26.0722 197.427 25.7032 197.72 25.3899C198.006 25.0972 198.349 24.8672 198.728 24.7145C199.107 24.5618 199.513 24.4898 199.922 24.5031C200.455 24.4909 200.979 24.635 201.431 24.9175C201.848 25.1779 202.181 25.5516 202.393 25.9949V24.6191H203.222V30.9552H202.393V29.5628C202.182 30.0146 201.847 30.397 201.427 30.6651C200.976 30.9492 200.451 31.0934 199.918 31.0795C199.505 31.0885 199.096 31.0083 198.717 30.8445C198.339 30.6807 198 30.4372 197.725 30.1305ZM201.7 29.6623C202.139 29.1398 202.38 28.4796 202.38 27.7975C202.38 27.1154 202.139 26.4552 201.7 25.9327C201.489 25.7052 201.232 25.5243 200.946 25.4015C200.661 25.2788 200.353 25.217 200.042 25.22C199.734 25.2147 199.427 25.2727 199.142 25.3903C198.857 25.5079 198.599 25.6826 198.384 25.9037C198.149 26.1494 197.968 26.4405 197.85 26.7591C197.732 27.0777 197.681 27.417 197.7 27.7561C197.672 28.4563 197.921 29.1393 198.392 29.6581C198.6 29.8923 198.855 30.0792 199.141 30.2065C199.427 30.3337 199.737 30.3982 200.05 30.3957C200.361 30.3955 200.669 30.3301 200.953 30.2037C201.237 30.0774 201.492 29.893 201.7 29.6623Z" fill="black"/>
<path d="M205.755 24.6191V25.651C205.959 25.2783 206.265 24.9719 206.638 24.7684C207.01 24.5648 207.434 24.4728 207.857 24.5031C208.183 24.4939 208.508 24.5505 208.811 24.6694C209.114 24.7883 209.391 24.9671 209.624 25.1951C209.871 25.4606 210.062 25.7741 210.184 26.1162C210.306 26.4584 210.357 26.8218 210.332 27.1842V30.9552H209.532V27.35C209.573 26.7745 209.392 26.2053 209.027 25.7587C208.652 25.4091 208.158 25.2147 207.646 25.2147C207.133 25.2147 206.64 25.4091 206.265 25.7587C205.898 26.2045 205.716 26.7739 205.755 27.35V30.9552H204.926V24.6191H205.755Z" fill="black"/>
<path d="M214.835 25.278H213.098V29.4592C213.074 29.6972 213.14 29.9354 213.284 30.1264C213.472 30.2747 213.71 30.3432 213.948 30.317H214.851V30.9552H213.774C212.784 30.9552 212.289 30.4565 212.289 29.4592V25.278H211.406V24.6191H212.269V23.032H213.098V24.6233H214.851L214.835 25.278Z" fill="black"/>
<path d="M218.595 31.0795C218.185 31.0936 217.776 31.0203 217.395 30.8646C217.015 30.7089 216.672 30.4742 216.39 30.1761C215.813 29.5203 215.515 28.6653 215.56 27.7934C215.537 27.3581 215.6 26.9226 215.747 26.5121C215.894 26.1016 216.121 25.7243 216.414 25.4023C216.704 25.1041 217.053 24.87 217.438 24.7151C217.824 24.5602 218.238 24.488 218.653 24.5031C219.049 24.4809 219.444 24.5414 219.815 24.6809C220.186 24.8204 220.523 25.0357 220.806 25.3131C221.088 25.5905 221.31 25.9237 221.456 26.2916C221.602 26.6595 221.67 27.0538 221.655 27.4494C221.656 27.6589 221.641 27.8681 221.609 28.0751H216.385C216.379 28.7107 216.616 29.3246 217.049 29.7907C217.25 29.9975 217.492 30.1599 217.76 30.2677C218.028 30.3754 218.315 30.4261 218.603 30.4165C219.042 30.4291 219.475 30.3123 219.847 30.0808C220.176 29.8753 220.427 29.5662 220.56 29.2023H221.431C221.227 29.7371 220.873 30.2018 220.411 30.5408C219.882 30.9151 219.243 31.1045 218.595 31.0795ZM220.813 27.4494C220.827 27.1444 220.778 26.8399 220.669 26.5547C220.559 26.2695 220.393 26.0099 220.179 25.7918C219.755 25.3968 219.197 25.1772 218.618 25.1772C218.039 25.1772 217.481 25.3968 217.057 25.7918C216.628 26.238 216.385 26.8306 216.377 27.4494H220.813Z" fill="black"/>
<path d="M222.799 26.372C222.798 26.114 222.858 25.8593 222.973 25.6284C223.088 25.3975 223.256 25.1966 223.462 25.0418C223.933 24.6701 224.521 24.479 225.121 24.5031C225.693 24.4681 226.256 24.6568 226.692 25.0294C227.083 25.4129 227.307 25.9359 227.314 26.4839H226.484C226.486 26.3003 226.45 26.1185 226.377 25.9498C226.305 25.781 226.199 25.6292 226.064 25.5037C225.93 25.3783 225.772 25.2821 225.599 25.2211C225.425 25.1601 225.241 25.1358 225.058 25.1495C224.684 25.1271 224.314 25.242 224.018 25.4728C223.9 25.5664 223.805 25.6856 223.739 25.8212C223.674 25.9568 223.64 26.1054 223.64 26.256C223.633 26.3895 223.655 26.5231 223.702 26.648C223.75 26.7729 223.824 26.8864 223.918 26.9811C224.113 27.1643 224.356 27.2892 224.619 27.3417C224.895 27.4025 225.201 27.4757 225.535 27.5613C225.87 27.6469 226.175 27.7381 226.451 27.8348C226.733 27.932 226.978 28.1145 227.152 28.3569C227.348 28.6414 227.445 28.9818 227.43 29.3266C227.432 29.5699 227.374 29.8101 227.263 30.0266C227.152 30.243 226.99 30.4294 226.791 30.5698C226.307 30.9207 225.719 31.1001 225.121 31.0795C224.52 31.116 223.928 30.9252 223.462 30.5449C223.259 30.3609 223.095 30.1374 222.981 29.888C222.867 29.6386 222.805 29.3687 222.799 29.0946H223.628C223.629 29.2744 223.666 29.4523 223.737 29.6174C223.809 29.7826 223.912 29.9318 224.043 30.0559C224.342 30.3173 224.732 30.4512 225.129 30.4289C225.509 30.4525 225.887 30.349 226.203 30.1347C226.322 30.0482 226.42 29.9341 226.486 29.8021C226.552 29.6701 226.586 29.5241 226.584 29.3763C226.591 29.2421 226.57 29.108 226.522 28.9824C226.474 28.8568 226.401 28.7426 226.306 28.647C226.11 28.4641 225.868 28.338 225.606 28.2823L224.706 28.042C224.377 27.9564 224.072 27.868 223.79 27.7768C223.494 27.6838 223.237 27.4956 223.059 27.2415C222.881 26.9874 222.793 26.6817 222.807 26.372H222.799Z" fill="black"/>
<path d="M170.727 39.5373H178.911V41.7874H173.069V44.8249C173.368 44.516 173.73 44.2756 174.131 44.1205C174.659 43.9174 175.223 43.8216 175.789 43.8387C176.426 43.8398 177.054 43.9813 177.63 44.2531C178.163 44.4834 178.622 44.8562 178.957 45.3305C179.56 46.1863 179.88 47.2093 179.873 48.2561C179.903 48.8742 179.811 49.4921 179.602 50.0745C179.392 50.6568 179.07 51.1923 178.654 51.65C177.841 52.4981 176.715 52.9222 175.275 52.9222C173.835 52.9222 172.703 52.5838 171.88 51.9069C171.064 51.2452 170.542 50.2897 170.424 49.2465H172.949C173.049 49.7076 173.32 50.1136 173.708 50.382C174.183 50.6821 174.739 50.8269 175.3 50.7964C175.592 50.8122 175.885 50.7593 176.153 50.642C176.422 50.5247 176.659 50.3463 176.846 50.1209C177.233 49.605 177.426 48.9702 177.394 48.3266C177.434 47.7029 177.233 47.0875 176.834 46.6068C176.643 46.4048 176.411 46.2462 176.153 46.1419C175.896 46.0375 175.619 45.9897 175.341 46.0018C174.169 46.0018 173.449 46.4715 173.181 47.4108H170.727V39.5373Z" fill="black"/>
<path d="M181.817 46.2422C181.817 41.822 183.461 39.6119 186.75 39.6119C190.04 39.6119 191.684 41.822 191.684 46.2422C191.684 50.6624 190.04 52.8725 186.75 52.8725C183.461 52.8725 181.817 50.6624 181.817 46.2422ZM187.841 42.2267C187.502 42.0701 187.134 41.9889 186.761 41.9889C186.388 41.9889 186.019 42.0701 185.681 42.2267C185.399 42.3657 185.156 42.5739 184.976 42.8317C184.79 43.1268 184.657 43.4522 184.582 43.7931C184.488 44.1687 184.425 44.5511 184.391 44.9368C184.361 45.3015 184.346 45.7352 184.346 46.238C184.346 46.7408 184.361 47.1732 184.391 47.5351C184.425 47.9208 184.488 48.3032 184.582 48.6788C184.658 49.0219 184.791 49.3498 184.976 49.6485C185.154 49.9105 185.397 50.1218 185.681 50.2618C186.019 50.4184 186.388 50.4996 186.761 50.4996C187.134 50.4996 187.502 50.4184 187.841 50.2618C188.125 50.1217 188.368 49.9104 188.546 49.6485C188.731 49.3498 188.864 49.0219 188.94 48.6788C189.033 48.3032 189.097 47.9207 189.13 47.5351C189.161 47.1704 189.176 46.7381 189.176 46.238C189.176 45.738 189.161 45.3043 189.13 44.9368C189.097 44.5512 189.033 44.1688 188.94 43.7931C188.865 43.4522 188.732 43.1269 188.546 42.8317C188.365 42.574 188.123 42.3659 187.841 42.2267Z" fill="black"/>
<path d="M196.39 51.447C196.396 51.6402 196.363 51.8327 196.292 52.0125C196.22 52.1922 196.113 52.3552 195.975 52.4912C195.838 52.6271 195.674 52.7338 195.495 52.805C195.315 52.8762 195.123 52.9104 194.93 52.9056C194.542 52.9056 194.17 52.7515 193.895 52.4772C193.621 52.2029 193.467 51.8308 193.467 51.4428C193.467 51.0549 193.621 50.6828 193.895 50.4085C194.17 50.1341 194.542 49.98 194.93 49.98C195.123 49.9755 195.315 50.0098 195.495 50.081C195.674 50.1522 195.838 50.2588 195.975 50.3944C196.114 50.5314 196.222 50.6958 196.293 50.877C196.365 51.0582 196.398 51.2524 196.39 51.447Z" fill="black"/>
<path d="M198.127 46.2422C198.127 41.822 199.771 39.6119 203.061 39.6119C206.35 39.6119 207.994 41.822 207.994 46.2422C207.994 50.6624 206.35 52.8725 203.061 52.8725C199.771 52.8725 198.127 50.6624 198.127 46.2422ZM204.151 42.2267C203.812 42.0701 203.444 41.9889 203.071 41.9889C202.698 41.9889 202.329 42.0701 201.991 42.2267C201.709 42.3659 201.466 42.574 201.286 42.8317C201.1 43.1268 200.967 43.4522 200.892 43.7931C200.798 44.1687 200.735 44.5511 200.702 44.9368C200.671 45.3015 200.656 45.7352 200.656 46.238C200.656 46.7408 200.671 47.1732 200.702 47.5351C200.735 47.9208 200.798 48.3032 200.892 48.6788C200.968 49.0219 201.101 49.3498 201.286 49.6485C201.464 49.9104 201.707 50.1217 201.991 50.2618C202.329 50.4184 202.698 50.4996 203.071 50.4996C203.444 50.4996 203.812 50.4184 204.151 50.2618C204.435 50.1217 204.678 49.9104 204.856 49.6485C205.041 49.3498 205.174 49.0219 205.25 48.6788C205.343 48.3032 205.407 47.9207 205.44 47.5351C205.471 47.1704 205.486 46.7381 205.486 46.238C205.486 45.738 205.471 45.3043 205.44 44.9368C205.407 44.5512 205.343 44.1688 205.25 43.7931C205.175 43.4522 205.042 43.1268 204.856 42.8317C204.675 42.574 204.433 42.3659 204.151 42.2267Z" fill="black"/>
<path d="M209.955 46.2422C209.955 41.822 211.6 39.6119 214.889 39.6119C218.178 39.6119 219.822 41.822 219.822 46.2422C219.822 50.6624 218.178 52.8725 214.889 52.8725C211.6 52.8725 209.955 50.6624 209.955 46.2422ZM215.979 42.2267C215.641 42.0701 215.272 41.9889 214.899 41.9889C214.526 41.9889 214.157 42.0701 213.819 42.2267C213.537 42.3657 213.294 42.5739 213.114 42.8317C212.928 43.1268 212.795 43.4522 212.72 43.7931C212.627 44.1687 212.563 44.5512 212.53 44.9368C212.499 45.3015 212.484 45.7352 212.484 46.238C212.484 46.7408 212.499 47.1732 212.53 47.5351C212.563 47.9208 212.627 48.3032 212.72 48.6788C212.796 49.0219 212.929 49.3498 213.114 49.6485C213.292 49.9105 213.535 50.1218 213.819 50.2618C214.157 50.4184 214.526 50.4996 214.899 50.4996C215.272 50.4996 215.641 50.4184 215.979 50.2618C216.263 50.1217 216.506 49.9104 216.684 49.6485C216.869 49.3497 217.002 49.0219 217.078 48.6788C217.171 48.3032 217.235 47.9207 217.268 47.5351C217.299 47.1704 217.314 46.7381 217.314 46.238C217.314 45.738 217.299 45.3043 217.268 44.9368C217.235 44.5512 217.171 44.1688 217.078 43.7931C217.003 43.4522 216.87 43.1269 216.684 42.8317C216.502 42.5735 216.258 42.3653 215.975 42.2267H215.979Z" fill="black"/>
<path d="M221.779 46.2422C221.779 41.822 223.423 39.6119 226.712 39.6119C230.001 39.6119 231.646 41.822 231.646 46.2422C231.646 50.6624 230.001 52.8725 226.712 52.8725C223.423 52.8725 221.779 50.6624 221.779 46.2422ZM227.803 42.2267C227.464 42.0701 227.096 41.9889 226.723 41.9889C226.35 41.9889 225.981 42.0701 225.643 42.2267C225.361 42.3657 225.118 42.5739 224.938 42.8317C224.752 43.1268 224.618 43.4522 224.544 43.7931C224.45 44.1687 224.387 44.5512 224.353 44.9368C224.323 45.3015 224.308 45.7352 224.308 46.238C224.308 46.7408 224.323 47.1732 224.353 47.5351C224.387 47.9208 224.45 48.3032 224.544 48.6788C224.62 49.0219 224.753 49.3498 224.938 49.6485C225.116 49.9105 225.359 50.1218 225.643 50.2618C225.981 50.4184 226.35 50.4996 226.723 50.4996C227.096 50.4996 227.464 50.4184 227.803 50.2618C228.087 50.1217 228.33 49.9104 228.508 49.6485C228.692 49.3497 228.826 49.0219 228.901 48.6788C228.995 48.3032 229.059 47.9207 229.092 47.5351C229.123 47.1704 229.138 46.7381 229.138 46.238C229.138 45.738 229.123 45.3043 229.092 44.9368C229.059 44.5512 228.995 44.1688 228.901 43.7931C228.827 43.4522 228.694 43.1269 228.508 42.8317C228.326 42.5735 228.082 42.3653 227.799 42.2267H227.803Z" fill="black"/>
<path d="M185.101 105.413H185.93V112.794H188.832V113.419H185.101V105.413Z" fill="black"/>
<path d="M192.575 113.544C192.165 113.558 191.756 113.485 191.375 113.329C190.995 113.173 190.652 112.939 190.37 112.64C189.793 111.985 189.496 111.13 189.541 110.258C189.521 109.824 189.587 109.39 189.735 108.982C189.884 108.573 190.112 108.199 190.407 107.879C190.696 107.581 191.045 107.347 191.431 107.192C191.817 107.037 192.23 106.965 192.646 106.98C193.041 106.958 193.437 107.018 193.808 107.158C194.178 107.297 194.516 107.512 194.798 107.79C195.081 108.067 195.302 108.4 195.449 108.768C195.595 109.136 195.663 109.531 195.647 109.926C195.649 110.136 195.634 110.345 195.602 110.552H190.378C190.372 111.187 190.609 111.801 191.041 112.267C191.243 112.474 191.485 112.637 191.753 112.744C192.02 112.852 192.308 112.903 192.596 112.893C193.035 112.906 193.467 112.789 193.84 112.558C194.169 112.351 194.42 112.04 194.553 111.675H195.424C195.219 112.21 194.865 112.674 194.404 113.013C193.87 113.387 193.227 113.574 192.575 113.544ZM194.793 109.914C194.807 109.609 194.758 109.304 194.649 109.019C194.54 108.734 194.373 108.474 194.159 108.256C193.735 107.861 193.178 107.641 192.598 107.641C192.019 107.641 191.461 107.861 191.037 108.256C190.608 108.702 190.365 109.295 190.357 109.914H194.793Z" fill="black"/>
<path d="M197.418 112.595C196.827 111.94 196.515 111.081 196.547 110.2C196.528 109.771 196.594 109.342 196.743 108.939C196.892 108.536 197.12 108.167 197.414 107.854C197.699 107.562 198.042 107.331 198.421 107.179C198.8 107.026 199.207 106.954 199.615 106.967C200.148 106.955 200.673 107.099 201.124 107.382C201.541 107.642 201.875 108.016 202.086 108.459V107.079H202.915V113.419H202.086V112.027C201.874 112.472 201.541 112.849 201.124 113.113C200.673 113.397 200.148 113.541 199.615 113.527C199.203 113.539 198.794 113.462 198.415 113.301C198.035 113.14 197.695 112.899 197.418 112.595ZM201.394 112.127C201.832 111.604 202.073 110.944 202.073 110.262C202.073 109.58 201.832 108.919 201.394 108.397C201.182 108.169 200.925 107.989 200.64 107.866C200.354 107.743 200.046 107.681 199.735 107.684C199.427 107.679 199.121 107.737 198.835 107.855C198.55 107.972 198.292 108.147 198.077 108.368C197.843 108.614 197.661 108.905 197.543 109.223C197.426 109.542 197.374 109.881 197.393 110.22C197.365 110.921 197.614 111.604 198.085 112.122C198.293 112.357 198.549 112.544 198.835 112.671C199.121 112.798 199.431 112.863 199.744 112.86C200.055 112.86 200.362 112.794 200.646 112.668C200.931 112.541 201.185 112.357 201.394 112.127Z" fill="black"/>
<path d="M205.1 112.595C204.509 111.94 204.196 111.081 204.229 110.2C204.21 109.771 204.276 109.342 204.425 108.939C204.574 108.536 204.802 108.168 205.096 107.854C205.381 107.562 205.724 107.332 206.103 107.179C206.482 107.026 206.889 106.954 207.297 106.967C207.83 106.955 208.355 107.099 208.806 107.382C209.223 107.642 209.557 108.016 209.768 108.459V104.842H210.597V113.42H209.768V112.027C209.556 112.472 209.223 112.849 208.806 113.113C208.355 113.397 207.83 113.541 207.297 113.527C206.886 113.539 206.476 113.462 206.097 113.301C205.718 113.14 205.378 112.899 205.1 112.595ZM209.076 112.127C209.515 111.604 209.755 110.944 209.755 110.262C209.755 109.58 209.515 108.919 209.076 108.397C208.864 108.169 208.608 107.989 208.322 107.866C208.036 107.743 207.728 107.681 207.418 107.684C207.109 107.679 206.803 107.737 206.518 107.855C206.232 107.972 205.974 108.147 205.759 108.368C205.525 108.614 205.343 108.905 205.225 109.223C205.108 109.542 205.057 109.881 205.075 110.22C205.048 110.921 205.296 111.604 205.768 112.122C205.975 112.357 206.231 112.544 206.517 112.671C206.803 112.798 207.113 112.863 207.426 112.86C207.737 112.86 208.044 112.794 208.329 112.668C208.613 112.542 208.867 112.357 209.076 112.127Z" fill="black"/>
<path d="M212.148 108.836C212.146 108.579 212.204 108.325 212.317 108.094C212.43 107.864 212.595 107.662 212.799 107.506C213.27 107.134 213.858 106.943 214.457 106.967C215.029 106.932 215.593 107.121 216.028 107.494C216.42 107.877 216.644 108.4 216.65 108.948H215.821C215.823 108.765 215.786 108.583 215.714 108.414C215.642 108.245 215.535 108.093 215.401 107.968C215.267 107.843 215.108 107.746 214.935 107.685C214.762 107.624 214.578 107.6 214.395 107.614C214.02 107.591 213.65 107.706 213.354 107.937C213.237 108.031 213.141 108.15 213.076 108.285C213.011 108.421 212.977 108.57 212.977 108.72C212.97 108.854 212.991 108.987 213.039 109.112C213.087 109.237 213.16 109.351 213.255 109.445C213.45 109.629 213.693 109.754 213.956 109.806C214.232 109.867 214.537 109.94 214.872 110.026C215.206 110.111 215.512 110.202 215.788 110.299C216.07 110.396 216.315 110.579 216.489 110.821C216.684 111.106 216.782 111.446 216.766 111.791C216.768 112.034 216.711 112.274 216.6 112.491C216.489 112.707 216.327 112.894 216.128 113.034C215.644 113.375 215.061 113.547 214.47 113.523C213.869 113.56 213.277 113.369 212.811 112.989C212.608 112.804 212.444 112.581 212.33 112.332C212.216 112.082 212.154 111.812 212.148 111.538H212.977C212.978 111.718 213.015 111.896 213.086 112.061C213.158 112.226 213.262 112.375 213.392 112.5C213.691 112.761 214.081 112.895 214.478 112.872C214.859 112.896 215.236 112.793 215.552 112.578C215.672 112.492 215.769 112.378 215.835 112.246C215.902 112.114 215.935 111.968 215.933 111.82C215.94 111.686 215.919 111.552 215.871 111.426C215.823 111.3 215.75 111.186 215.655 111.091C215.459 110.908 215.217 110.782 214.955 110.726L214.038 110.498C213.71 110.412 213.404 110.324 213.122 110.233C212.826 110.14 212.569 109.952 212.392 109.698C212.214 109.443 212.125 109.138 212.14 108.828L212.148 108.836Z" fill="black"/>
<path d="M170.545 135.192V133.306C170.862 133.03 171.35 132.606 172.008 132.034C172.666 131.462 173.161 131.033 173.492 130.745C173.821 130.452 174.228 130.066 174.711 129.585C175.101 129.209 175.458 128.801 175.781 128.367C176.301 127.717 176.613 126.925 176.676 126.096C176.676 124.803 176.078 124.156 174.881 124.156C174.623 124.143 174.365 124.189 174.128 124.29C173.89 124.391 173.678 124.545 173.509 124.741C173.154 125.201 172.972 125.772 172.995 126.353H170.507C170.507 124.924 170.922 123.839 171.751 123.096C172.646 122.326 173.801 121.928 174.981 121.981C175.552 121.949 176.124 122.033 176.662 122.228C177.2 122.423 177.693 122.725 178.111 123.116C178.485 123.489 178.779 123.935 178.974 124.426C179.17 124.917 179.263 125.443 179.247 125.971C179.25 126.81 179.022 127.633 178.588 128.35C178.369 128.74 178.155 129.083 177.945 129.382C177.678 129.75 177.382 130.095 177.058 130.414L176.15 131.33C175.932 131.548 175.598 131.856 175.151 132.254C174.703 132.651 174.395 132.928 174.226 133.082H179.554V135.188L170.545 135.192Z" fill="black"/>
<path d="M181.174 128.706C181.174 124.286 182.819 122.076 186.108 122.076C189.397 122.076 191.041 124.286 191.041 128.706C191.041 133.127 189.397 135.337 186.108 135.337C182.819 135.337 181.174 133.127 181.174 128.706ZM187.198 124.691C186.86 124.534 186.491 124.453 186.118 124.453C185.745 124.453 185.377 124.534 185.038 124.691C184.756 124.83 184.514 125.038 184.333 125.296C184.147 125.591 184.014 125.916 183.94 126.257C183.846 126.633 183.782 127.015 183.749 127.401C183.718 127.766 183.703 128.2 183.703 128.702C183.703 129.205 183.718 129.637 183.749 129.999C183.782 130.385 183.846 130.768 183.94 131.143C184.015 131.486 184.148 131.814 184.333 132.113C184.511 132.375 184.754 132.586 185.038 132.726C185.377 132.883 185.745 132.964 186.118 132.964C186.491 132.964 186.86 132.883 187.198 132.726C187.482 132.586 187.725 132.375 187.903 132.113C188.088 131.814 188.221 131.486 188.297 131.143C188.39 130.767 188.454 130.385 188.488 129.999C188.518 129.635 188.533 129.202 188.533 128.702C188.533 128.202 188.518 127.769 188.488 127.401C188.454 127.015 188.39 126.633 188.297 126.257C188.222 125.917 188.089 125.591 187.903 125.296C187.723 125.038 187.48 124.83 187.198 124.691Z" fill="black"/>
<path d="M195.747 133.911C195.754 134.104 195.72 134.297 195.649 134.477C195.578 134.656 195.47 134.819 195.332 134.955C195.195 135.091 195.032 135.198 194.852 135.269C194.673 135.34 194.481 135.375 194.288 135.37C193.9 135.37 193.527 135.216 193.253 134.941C192.978 134.667 192.824 134.295 192.824 133.907C192.824 133.519 192.978 133.147 193.253 132.873C193.527 132.598 193.9 132.444 194.288 132.444C194.481 132.44 194.673 132.474 194.852 132.545C195.032 132.616 195.195 132.723 195.332 132.859C195.471 132.996 195.579 133.16 195.651 133.341C195.722 133.522 195.755 133.717 195.747 133.911Z" fill="black"/>
<path d="M197.488 128.706C197.488 124.286 199.133 122.076 202.422 122.076C205.711 122.076 207.355 124.286 207.355 128.706C207.355 133.127 205.711 135.337 202.422 135.337C199.133 135.337 197.488 133.127 197.488 128.706ZM203.512 124.691C203.174 124.534 202.805 124.453 202.432 124.453C202.059 124.453 201.691 124.534 201.352 124.691C201.07 124.83 200.828 125.038 200.647 125.296C200.461 125.591 200.328 125.916 200.254 126.257C200.16 126.633 200.096 127.015 200.063 127.401C200.032 127.766 200.017 128.2 200.017 128.702C200.017 129.205 200.032 129.637 200.063 129.999C200.096 130.385 200.16 130.767 200.254 131.143C200.329 131.486 200.462 131.814 200.647 132.113C200.825 132.375 201.068 132.586 201.352 132.726C201.691 132.883 202.059 132.964 202.432 132.964C202.805 132.964 203.174 132.883 203.512 132.726C203.796 132.586 204.039 132.375 204.217 132.113C204.402 131.814 204.535 131.486 204.611 131.143C204.704 130.767 204.768 130.385 204.802 129.999C204.832 129.635 204.847 129.202 204.847 128.702C204.847 128.202 204.832 127.769 204.802 127.401C204.768 127.015 204.704 126.633 204.611 126.257C204.536 125.917 204.403 125.591 204.217 125.296C204.036 125.038 203.792 124.83 203.508 124.691H203.512Z" fill="black"/>
<path d="M209.312 128.706C209.312 124.286 210.957 122.076 214.246 122.076C217.535 122.076 219.18 124.286 219.18 128.706C219.18 133.127 217.535 135.337 214.246 135.337C210.957 135.337 209.312 133.127 209.312 128.706ZM215.336 124.691C214.998 124.534 214.629 124.453 214.256 124.453C213.883 124.453 213.515 124.534 213.176 124.691C212.894 124.83 212.652 125.038 212.472 125.296C212.285 125.591 212.152 125.916 212.078 126.257C211.984 126.633 211.92 127.015 211.887 127.401C211.857 127.766 211.841 128.2 211.841 128.702C211.841 129.205 211.857 129.637 211.887 129.999C211.92 130.385 211.984 130.767 212.078 131.143C212.153 131.486 212.287 131.814 212.472 132.113C212.649 132.375 212.892 132.586 213.176 132.726C213.515 132.883 213.883 132.964 214.256 132.964C214.629 132.964 214.998 132.883 215.336 132.726C215.62 132.586 215.863 132.375 216.041 132.113C216.226 131.814 216.359 131.486 216.435 131.143C216.529 130.767 216.592 130.385 216.626 129.999C216.656 129.635 216.671 129.202 216.671 128.702C216.671 128.202 216.656 127.769 216.626 127.401C216.592 127.015 216.529 126.633 216.435 126.257C216.361 125.917 216.227 125.591 216.041 125.296C215.861 125.038 215.619 124.83 215.336 124.691Z" fill="black"/>
<path d="M221.136 128.706C221.136 124.286 222.781 122.076 226.07 122.076C229.359 122.076 231.003 124.286 231.003 128.706C231.003 133.127 229.359 135.337 226.07 135.337C222.781 135.337 221.136 133.127 221.136 128.706ZM227.16 124.691C226.822 124.534 226.453 124.453 226.08 124.453C225.707 124.453 225.339 124.534 225 124.691C224.718 124.83 224.476 125.038 224.295 125.296C224.109 125.591 223.976 125.916 223.902 126.257C223.808 126.633 223.744 127.015 223.711 127.401C223.68 127.766 223.665 128.2 223.665 128.702C223.665 129.205 223.68 129.637 223.711 129.999C223.744 130.385 223.808 130.768 223.902 131.143C223.977 131.486 224.11 131.814 224.295 132.113C224.473 132.375 224.716 132.586 225 132.726C225.339 132.883 225.707 132.964 226.08 132.964C226.453 132.964 226.822 132.883 227.16 132.726C227.444 132.586 227.687 132.375 227.865 132.113C228.05 131.814 228.183 131.486 228.259 131.143C228.352 130.767 228.416 130.385 228.45 129.999C228.48 129.635 228.495 129.202 228.495 128.702C228.495 128.202 228.48 127.769 228.45 127.401C228.416 127.015 228.352 126.633 228.259 126.257C228.184 125.916 228.051 125.591 227.865 125.296C227.685 125.038 227.442 124.83 227.16 124.691Z" fill="black"/>
<path d="M160.072 195.225C159.316 194.436 158.895 193.387 158.895 192.295C158.895 191.203 159.316 190.154 160.072 189.365C160.855 188.622 161.894 188.208 162.974 188.208C164.054 188.208 165.093 188.622 165.876 189.365C166.463 189.935 166.865 190.668 167.03 191.468C167.196 192.269 167.117 193.101 166.805 193.857C166.492 194.612 165.96 195.257 165.277 195.707C164.594 196.157 163.792 196.392 162.974 196.381C162.437 196.394 161.904 196.298 161.405 196.099C160.906 195.9 160.453 195.603 160.072 195.225ZM165.283 194.765C165.876 194.086 166.202 193.215 166.202 192.314C166.202 191.413 165.876 190.542 165.283 189.863C164.656 189.267 163.824 188.935 162.96 188.935C162.095 188.935 161.263 189.267 160.636 189.863C160.043 190.542 159.717 191.413 159.717 192.314C159.717 193.215 160.043 194.086 160.636 194.765C161.26 195.365 162.092 195.699 162.958 195.699C163.823 195.699 164.655 195.365 165.279 194.765H165.283Z" fill="black"/>
<path d="M171.639 189.846C172.047 189.833 172.454 189.905 172.833 190.057C173.212 190.21 173.555 190.44 173.84 190.733C174.134 191.046 174.362 191.415 174.511 191.818C174.66 192.221 174.726 192.649 174.707 193.078C174.739 193.959 174.427 194.819 173.836 195.473C173.56 195.781 173.221 196.025 172.842 196.188C172.462 196.352 172.052 196.432 171.639 196.422C171.106 196.436 170.581 196.292 170.13 196.008C169.713 195.744 169.38 195.368 169.168 194.922V199.307H168.339V189.962H169.168V191.342C169.38 190.899 169.713 190.525 170.13 190.265C170.581 189.981 171.106 189.835 171.639 189.846ZM171.51 195.718C171.823 195.72 172.133 195.656 172.419 195.528C172.705 195.401 172.961 195.214 173.169 194.98C173.64 194.462 173.889 193.779 173.861 193.078C173.88 192.739 173.829 192.4 173.711 192.081C173.593 191.763 173.412 191.472 173.177 191.226C172.962 191.005 172.704 190.831 172.418 190.713C172.133 190.596 171.827 190.537 171.519 190.542C171.208 190.538 170.9 190.6 170.614 190.723C170.328 190.845 170.072 191.027 169.86 191.255C169.422 191.777 169.181 192.438 169.181 193.12C169.181 193.802 169.422 194.462 169.86 194.985C170.07 195.217 170.326 195.403 170.613 195.53C170.899 195.656 171.21 195.72 171.523 195.718H171.51Z" fill="black"/>
<path d="M178.716 196.422C178.303 196.438 177.892 196.366 177.51 196.21C177.127 196.054 176.782 195.819 176.498 195.519C175.911 194.871 175.604 194.018 175.644 193.145C175.626 192.708 175.696 192.271 175.852 191.863C176.007 191.454 176.244 191.081 176.548 190.766C177.156 190.182 177.968 189.855 178.811 189.855C179.655 189.855 180.467 190.182 181.075 190.766C181.38 191.074 181.619 191.44 181.779 191.842C181.938 192.244 182.015 192.675 182.004 193.107C182.02 193.548 181.944 193.987 181.779 194.396C181.615 194.805 181.367 195.175 181.05 195.482C180.745 195.788 180.38 196.028 179.979 196.19C179.578 196.352 179.148 196.431 178.716 196.422ZM178.716 195.772C179.034 195.775 179.349 195.714 179.643 195.593C179.936 195.471 180.202 195.291 180.424 195.063C180.671 194.808 180.862 194.505 180.986 194.173C181.11 193.84 181.164 193.486 181.146 193.132C181.165 192.782 181.115 192.431 180.997 192.1C180.88 191.769 180.698 191.465 180.462 191.205C180.248 190.981 179.991 190.802 179.706 190.682C179.42 190.561 179.113 190.501 178.803 190.505C178.493 190.496 178.185 190.554 177.899 190.674C177.613 190.794 177.356 190.974 177.145 191.201C176.677 191.735 176.439 192.432 176.481 193.14C176.438 193.843 176.662 194.535 177.108 195.08C177.309 195.304 177.557 195.481 177.834 195.599C178.111 195.717 178.411 195.773 178.712 195.764L178.716 195.772Z" fill="black"/>
<path d="M184.13 189.962V191.006C184.295 190.632 184.572 190.319 184.924 190.111C185.276 189.902 185.684 189.81 186.091 189.846V190.675H185.859C185.626 190.659 185.393 190.692 185.172 190.769C184.952 190.847 184.75 190.968 184.578 191.127C184.235 191.568 184.074 192.124 184.13 192.68V196.277H183.301V189.962H184.13Z" fill="black"/>
<path d="M190.237 190.621H188.484V194.823C188.459 195.061 188.526 195.299 188.67 195.49C188.857 195.638 189.096 195.707 189.333 195.681H190.237V196.319H189.159C188.17 196.319 187.675 195.82 187.675 194.823V190.621H186.792V189.983H187.675V188.391H188.504V189.983H190.258L190.237 190.621Z" fill="black"/>
<path d="M195.867 189.962H196.696V196.298H195.867V195.266C195.664 195.639 195.357 195.945 194.985 196.148C194.612 196.352 194.189 196.444 193.765 196.414C193.439 196.423 193.115 196.367 192.812 196.248C192.508 196.129 192.232 195.95 191.999 195.722C191.751 195.457 191.56 195.143 191.438 194.801C191.316 194.459 191.266 194.095 191.29 193.733V189.962H192.09V193.584C192.05 194.159 192.231 194.729 192.596 195.175C192.971 195.525 193.464 195.719 193.977 195.719C194.489 195.719 194.983 195.525 195.357 195.175C195.723 194.729 195.904 194.159 195.863 193.584L195.867 189.962Z" fill="black"/>
<path d="M199.234 189.962V190.994C199.437 190.621 199.743 190.315 200.116 190.111C200.489 189.908 200.912 189.816 201.336 189.846C201.661 189.837 201.986 189.893 202.289 190.012C202.593 190.131 202.869 190.31 203.102 190.538C203.35 190.804 203.541 191.117 203.663 191.459C203.784 191.801 203.835 192.165 203.811 192.527V196.298H203.011V192.693C203.051 192.117 202.87 191.548 202.505 191.102C202.13 190.752 201.637 190.558 201.124 190.558C200.612 190.558 200.118 190.752 199.744 191.102C199.378 191.548 199.197 192.117 199.238 192.693V196.315H198.409V189.962H199.234Z" fill="black"/>
<path d="M206.501 188.172C206.502 188.327 206.441 188.476 206.331 188.586C206.278 188.642 206.214 188.687 206.142 188.717C206.071 188.747 205.994 188.762 205.917 188.76C205.758 188.76 205.607 188.697 205.495 188.586C205.383 188.474 205.32 188.322 205.32 188.164C205.32 188.005 205.383 187.854 205.495 187.742C205.607 187.63 205.758 187.567 205.917 187.567C205.994 187.566 206.071 187.58 206.142 187.61C206.214 187.64 206.278 187.685 206.331 187.741C206.387 187.797 206.431 187.865 206.461 187.939C206.49 188.013 206.504 188.092 206.501 188.172ZM205.49 196.298V189.962H206.319V196.298H205.49Z" fill="black"/>
<path d="M208.508 195.474C207.917 194.819 207.605 193.96 207.638 193.078C207.618 192.649 207.685 192.221 207.833 191.818C207.982 191.415 208.21 191.046 208.504 190.733C208.789 190.44 209.132 190.21 209.511 190.057C209.89 189.904 210.297 189.833 210.706 189.846C211.238 189.834 211.763 189.978 212.215 190.26C212.631 190.521 212.965 190.894 213.177 191.338V187.72H214.006V196.298H213.177V194.906C212.965 195.351 212.631 195.727 212.215 195.992C211.764 196.276 211.239 196.42 210.706 196.406C210.294 196.418 209.884 196.34 209.505 196.179C209.126 196.018 208.786 195.778 208.508 195.474ZM212.484 195.005C212.923 194.483 213.163 193.823 213.163 193.14C213.163 192.458 212.923 191.798 212.484 191.276C212.273 191.048 212.016 190.867 211.73 190.745C211.445 190.622 211.137 190.56 210.826 190.563C210.517 190.558 210.211 190.616 209.926 190.733C209.641 190.851 209.383 191.026 209.167 191.247C208.933 191.492 208.751 191.784 208.634 192.102C208.516 192.421 208.465 192.76 208.483 193.099C208.456 193.799 208.704 194.482 209.176 195.001C209.383 195.235 209.639 195.422 209.925 195.549C210.211 195.677 210.521 195.741 210.834 195.739C211.145 195.738 211.453 195.673 211.737 195.547C212.021 195.42 212.276 195.236 212.484 195.005Z" fill="black"/>
<path d="M216.195 195.473C215.604 194.819 215.291 193.96 215.324 193.078C215.305 192.649 215.371 192.221 215.52 191.818C215.669 191.415 215.897 191.046 216.191 190.733C216.476 190.44 216.819 190.21 217.198 190.057C217.577 189.905 217.984 189.833 218.392 189.846C218.925 189.834 219.449 189.978 219.901 190.26C220.318 190.521 220.651 190.895 220.863 191.338V189.958H221.692V196.298H220.863V194.906C220.653 195.358 220.317 195.74 219.897 196.008C219.446 196.292 218.921 196.436 218.388 196.422C217.976 196.432 217.566 196.352 217.187 196.188C216.809 196.024 216.47 195.78 216.195 195.473ZM220.171 195.005C220.609 194.483 220.85 193.823 220.85 193.14C220.85 192.458 220.609 191.798 220.171 191.276C219.959 191.048 219.702 190.867 219.417 190.744C219.131 190.622 218.823 190.56 218.512 190.563C218.204 190.558 217.898 190.616 217.612 190.733C217.327 190.851 217.069 191.026 216.854 191.247C216.619 191.492 216.438 191.783 216.32 192.102C216.202 192.421 216.151 192.76 216.17 193.099C216.142 193.799 216.391 194.483 216.862 195.001C217.07 195.235 217.325 195.422 217.612 195.549C217.898 195.677 218.208 195.741 218.521 195.739C218.832 195.738 219.139 195.673 219.423 195.546C219.707 195.42 219.962 195.236 220.171 195.005Z" fill="black"/>
<path d="M223.877 195.474C223.286 194.819 222.973 193.96 223.006 193.078C222.987 192.649 223.053 192.221 223.202 191.818C223.351 191.415 223.579 191.046 223.873 190.733C224.158 190.44 224.501 190.21 224.88 190.057C225.259 189.904 225.666 189.833 226.074 189.846C226.607 189.834 227.132 189.978 227.583 190.26C228 190.521 228.334 190.894 228.545 191.338V187.72H229.374V196.298H228.545V194.906C228.333 195.351 228 195.727 227.583 195.992C227.132 196.276 226.607 196.42 226.074 196.406C225.662 196.418 225.253 196.34 224.874 196.179C224.495 196.018 224.155 195.778 223.877 195.474ZM227.853 195.005C228.291 194.483 228.532 193.823 228.532 193.14C228.532 192.458 228.291 191.798 227.853 191.276C227.641 191.048 227.384 190.867 227.099 190.745C226.813 190.622 226.505 190.56 226.194 190.563C225.886 190.558 225.58 190.616 225.294 190.733C225.009 190.851 224.751 191.026 224.536 191.247C224.302 191.492 224.12 191.784 224.002 192.102C223.885 192.421 223.833 192.76 223.852 193.099C223.824 193.799 224.073 194.482 224.544 195.001C224.752 195.235 225.008 195.422 225.294 195.549C225.58 195.677 225.89 195.741 226.203 195.739C226.514 195.738 226.821 195.673 227.105 195.547C227.39 195.42 227.644 195.236 227.853 195.005Z" fill="black"/>
<path d="M233.744 196.422C233.333 196.437 232.924 196.363 232.544 196.208C232.164 196.052 231.821 195.817 231.538 195.519C230.962 194.863 230.664 194.008 230.709 193.136C230.689 192.702 230.756 192.269 230.904 191.86C231.053 191.452 231.281 191.077 231.576 190.758C231.865 190.459 232.214 190.225 232.599 190.07C232.985 189.916 233.399 189.843 233.814 189.858C234.217 189.837 234.619 189.9 234.996 190.042C235.373 190.185 235.716 190.405 236.003 190.687C236.275 190.964 236.488 191.293 236.631 191.654C236.773 192.015 236.842 192.4 236.832 192.788C236.834 192.998 236.819 193.207 236.787 193.414H231.563C231.557 194.05 231.794 194.663 232.226 195.13C232.428 195.336 232.67 195.499 232.938 195.606C233.205 195.714 233.493 195.765 233.781 195.755C234.22 195.768 234.652 195.651 235.025 195.42C235.355 195.213 235.606 194.903 235.738 194.537H236.609C236.404 195.072 236.05 195.536 235.589 195.875C235.052 196.259 234.403 196.452 233.744 196.422ZM235.962 192.792C235.976 192.487 235.926 192.183 235.817 191.898C235.708 191.612 235.541 191.353 235.328 191.135C234.904 190.74 234.346 190.52 233.767 190.52C233.187 190.52 232.629 190.74 232.206 191.135C231.777 191.581 231.534 192.174 231.526 192.792H235.962Z" fill="black"/>
<path d="M237.948 191.715C237.946 191.458 238.004 191.204 238.117 190.973C238.23 190.742 238.395 190.541 238.599 190.385C239.07 190.013 239.658 189.822 240.257 189.846C240.83 189.811 241.393 190 241.829 190.372C242.22 190.756 242.444 191.279 242.45 191.827H241.621C241.623 191.643 241.586 191.461 241.514 191.293C241.442 191.124 241.335 190.972 241.201 190.847C241.067 190.721 240.909 190.625 240.735 190.564C240.562 190.503 240.378 190.479 240.195 190.492C239.82 190.47 239.45 190.585 239.154 190.816C239.037 190.909 238.941 191.029 238.876 191.164C238.811 191.3 238.777 191.448 238.777 191.599C238.77 191.732 238.791 191.866 238.839 191.991C238.887 192.116 238.961 192.229 239.055 192.324C239.25 192.507 239.493 192.632 239.756 192.685C240.032 192.745 240.337 192.819 240.672 192.904C241.006 192.99 241.312 193.081 241.588 193.178C241.87 193.275 242.115 193.458 242.289 193.7C242.484 193.984 242.582 194.325 242.567 194.67C242.568 194.913 242.511 195.153 242.4 195.37C242.289 195.586 242.127 195.772 241.928 195.913C241.444 196.254 240.861 196.426 240.27 196.402C239.669 196.438 239.077 196.247 238.611 195.867C238.408 195.683 238.244 195.46 238.13 195.21C238.016 194.961 237.954 194.691 237.948 194.417H238.777C238.778 194.597 238.815 194.774 238.887 194.94C238.958 195.105 239.062 195.254 239.192 195.378C239.491 195.64 239.881 195.774 240.278 195.751C240.659 195.775 241.036 195.671 241.352 195.457C241.472 195.37 241.569 195.256 241.635 195.124C241.702 194.992 241.735 194.846 241.733 194.699C241.74 194.564 241.719 194.43 241.671 194.305C241.623 194.179 241.55 194.065 241.455 193.969C241.259 193.786 241.017 193.66 240.755 193.605C240.478 193.538 240.173 193.462 239.839 193.377C239.504 193.291 239.2 193.201 238.926 193.107C238.631 193.014 238.374 192.826 238.196 192.572C238.018 192.318 237.93 192.012 237.944 191.703L237.948 191.715Z" fill="black"/>
<path d="M176.639 204.88H184.823V207.13H178.981V210.168C179.279 209.859 179.642 209.618 180.042 209.463C180.571 209.26 181.135 209.165 181.701 209.182C182.337 209.183 182.966 209.324 183.541 209.596C184.075 209.827 184.534 210.202 184.868 210.678C185.471 211.533 185.792 212.556 185.784 213.603C185.815 214.221 185.722 214.839 185.513 215.422C185.304 216.004 184.982 216.539 184.565 216.997C183.753 217.845 182.627 218.269 181.187 218.269C179.747 218.269 178.615 217.931 177.791 217.254C176.976 216.592 176.453 215.637 176.336 214.594H178.861C178.96 215.055 179.231 215.461 179.619 215.729C180.094 216.029 180.651 216.174 181.211 216.143C181.504 216.159 181.796 216.106 182.065 215.989C182.333 215.872 182.571 215.693 182.758 215.468C183.144 214.952 183.338 214.317 183.305 213.674C183.345 213.05 183.145 212.435 182.745 211.954C182.555 211.752 182.323 211.593 182.065 211.489C181.808 211.384 181.531 211.337 181.253 211.349C180.081 211.349 179.361 211.819 179.093 212.758H176.639V204.88Z" fill="black"/>
<path d="M190.478 216.79C190.484 216.983 190.451 217.176 190.38 217.355C190.308 217.535 190.2 217.698 190.063 217.834C189.926 217.97 189.762 218.077 189.583 218.148C189.403 218.219 189.211 218.253 189.018 218.249C188.826 218.249 188.636 218.211 188.458 218.137C188.281 218.064 188.119 217.956 187.983 217.82C187.847 217.684 187.74 217.523 187.666 217.346C187.593 217.168 187.555 216.978 187.555 216.786C187.555 216.594 187.593 216.403 187.666 216.226C187.74 216.048 187.847 215.887 187.983 215.751C188.119 215.616 188.281 215.508 188.458 215.434C188.636 215.361 188.826 215.323 189.018 215.323C189.211 215.318 189.403 215.353 189.583 215.424C189.762 215.495 189.926 215.602 190.063 215.737C190.201 215.874 190.31 216.039 190.381 216.22C190.453 216.401 190.485 216.595 190.478 216.79Z" fill="black"/>
<path d="M192.215 211.585C192.215 207.165 193.859 204.955 197.148 204.955C200.437 204.955 202.082 207.165 202.082 211.585C202.082 216.005 200.437 218.215 197.148 218.215C193.859 218.215 192.215 216.005 192.215 211.585ZM198.239 207.57C197.9 207.413 197.532 207.332 197.159 207.332C196.786 207.332 196.417 207.413 196.079 207.57C195.797 207.709 195.554 207.917 195.374 208.175C195.188 208.47 195.054 208.795 194.98 209.136C194.886 209.512 194.823 209.894 194.789 210.28C194.759 210.647 194.744 211.081 194.744 211.581C194.744 212.081 194.759 212.513 194.789 212.878C194.823 213.264 194.886 213.646 194.98 214.022C195.056 214.365 195.189 214.693 195.374 214.991C195.552 215.253 195.795 215.465 196.079 215.605C196.417 215.761 196.786 215.843 197.159 215.843C197.532 215.843 197.9 215.761 198.239 215.605C198.523 215.465 198.766 215.253 198.944 214.991C199.128 214.693 199.262 214.365 199.337 214.022C199.431 213.646 199.495 213.264 199.528 212.878C199.559 212.511 199.574 212.078 199.574 211.581C199.574 211.084 199.559 210.65 199.528 210.28C199.495 209.894 199.431 209.512 199.337 209.136C199.263 208.795 199.13 208.47 198.944 208.175C198.763 207.917 198.521 207.709 198.239 207.57Z" fill="black"/>
<path d="M204.039 211.585C204.039 207.165 205.684 204.955 208.973 204.955C212.262 204.955 213.906 207.165 213.906 211.585C213.906 216.005 212.262 218.215 208.973 218.215C205.684 218.215 204.039 216.005 204.039 211.585ZM210.063 207.57C209.725 207.413 209.356 207.332 208.983 207.332C208.61 207.332 208.241 207.413 207.903 207.57C207.621 207.709 207.378 207.917 207.198 208.175C207.012 208.47 206.879 208.795 206.804 209.136C206.711 209.512 206.647 209.894 206.614 210.28C206.583 210.647 206.568 211.081 206.568 211.581C206.568 212.081 206.583 212.513 206.614 212.878C206.647 213.264 206.711 213.646 206.804 214.022C206.88 214.365 207.013 214.693 207.198 214.991C207.376 215.253 207.619 215.465 207.903 215.605C208.241 215.761 208.61 215.843 208.983 215.843C209.356 215.843 209.725 215.761 210.063 215.605C210.347 215.465 210.59 215.253 210.768 214.991C210.953 214.693 211.086 214.365 211.162 214.022C211.255 213.646 211.319 213.264 211.352 212.878C211.383 212.511 211.398 212.078 211.398 211.581C211.398 211.084 211.383 210.65 211.352 210.28C211.319 209.894 211.255 209.512 211.162 209.136C211.087 208.795 210.954 208.47 210.768 208.175C210.588 207.917 210.345 207.709 210.063 207.57Z" fill="black"/>
<path d="M215.867 211.585C215.867 207.165 217.512 204.955 220.801 204.955C224.09 204.955 225.734 207.165 225.734 211.585C225.734 216.005 224.09 218.215 220.801 218.215C217.512 218.215 215.867 216.005 215.867 211.585ZM221.891 207.57C221.553 207.413 221.184 207.332 220.811 207.332C220.438 207.332 220.07 207.413 219.731 207.57C219.449 207.709 219.206 207.917 219.026 208.175C218.84 208.47 218.707 208.795 218.632 209.136C218.539 209.512 218.475 209.894 218.442 210.28C218.411 210.647 218.396 211.081 218.396 211.581C218.396 212.081 218.411 212.513 218.442 212.878C218.475 213.264 218.539 213.646 218.632 214.022C218.708 214.365 218.841 214.693 219.026 214.991C219.204 215.253 219.447 215.465 219.731 215.605C220.07 215.761 220.438 215.843 220.811 215.843C221.184 215.843 221.553 215.761 221.891 215.605C222.175 215.465 222.418 215.253 222.596 214.991C222.781 214.693 222.914 214.365 222.99 214.022C223.083 213.646 223.147 213.264 223.181 212.878C223.211 212.511 223.226 212.078 223.226 211.581C223.226 211.084 223.211 210.65 223.181 210.28C223.147 209.894 223.083 209.512 222.99 209.136C222.915 208.795 222.782 208.47 222.596 208.175C222.415 207.916 222.171 207.708 221.887 207.57H221.891Z" fill="black"/>
<path d="M182.713 277.105L179.566 269.099H180.424L183.094 276.189L185.789 269.099H186.647L183.5 277.105H182.713Z" fill="black"/>
<path d="M190.503 277.229C190.092 277.243 189.683 277.17 189.303 277.014C188.923 276.858 188.58 276.624 188.297 276.326C187.72 275.67 187.423 274.815 187.468 273.943C187.448 273.509 187.514 273.075 187.663 272.667C187.812 272.259 188.04 271.884 188.334 271.564C188.624 271.266 188.973 271.032 189.358 270.877C189.744 270.722 190.158 270.65 190.573 270.665C190.969 270.643 191.364 270.703 191.735 270.843C192.105 270.982 192.443 271.198 192.725 271.475C193.008 271.753 193.23 272.086 193.376 272.454C193.522 272.822 193.59 273.216 193.575 273.611C193.576 273.821 193.561 274.03 193.529 274.237H188.305C188.299 274.873 188.536 275.487 188.969 275.953C189.17 276.16 189.412 276.322 189.68 276.43C189.948 276.537 190.235 276.588 190.523 276.579C190.962 276.591 191.394 276.474 191.767 276.243C192.097 276.037 192.348 275.726 192.48 275.36H193.351C193.146 275.895 192.792 276.36 192.331 276.699C191.797 277.073 191.154 277.259 190.503 277.229ZM192.721 273.599C192.734 273.294 192.685 272.989 192.576 272.704C192.467 272.419 192.3 272.159 192.086 271.941C191.663 271.546 191.105 271.327 190.525 271.327C189.946 271.327 189.388 271.546 188.964 271.941C188.535 272.388 188.292 272.98 188.285 273.599H192.721Z" fill="black"/>
<path d="M195.685 270.769V271.801C195.888 271.428 196.195 271.122 196.567 270.918C196.94 270.714 197.363 270.622 197.787 270.653C198.113 270.644 198.437 270.7 198.741 270.819C199.044 270.938 199.32 271.117 199.553 271.345C199.801 271.61 199.992 271.924 200.114 272.266C200.236 272.608 200.286 272.971 200.262 273.334V277.105H199.462V273.5C199.503 272.924 199.322 272.355 198.956 271.908C198.582 271.558 198.088 271.363 197.576 271.363C197.063 271.363 196.569 271.558 196.195 271.908C195.828 272.354 195.646 272.924 195.685 273.5V277.121H194.856V270.769H195.685Z" fill="black"/>
<path d="M202.414 276.28C201.822 275.626 201.51 274.766 201.543 273.885C201.523 273.456 201.59 273.027 201.739 272.625C201.888 272.222 202.116 271.853 202.409 271.54C202.694 271.247 203.037 271.016 203.416 270.864C203.796 270.711 204.202 270.639 204.611 270.653C205.144 270.641 205.668 270.785 206.12 271.067C206.537 271.327 206.87 271.701 207.082 272.145V268.527H207.911V277.105H207.082V275.712C206.87 276.158 206.536 276.534 206.12 276.798C205.669 277.082 205.144 277.226 204.611 277.213C204.199 277.224 203.79 277.147 203.41 276.986C203.031 276.825 202.691 276.584 202.414 276.28ZM206.389 275.812C206.828 275.289 207.069 274.629 207.069 273.947C207.069 273.265 206.828 272.605 206.389 272.082C206.178 271.855 205.921 271.674 205.635 271.551C205.35 271.428 205.042 271.367 204.731 271.37C204.423 271.364 204.116 271.422 203.831 271.54C203.546 271.658 203.288 271.832 203.073 272.053C202.838 272.299 202.656 272.59 202.539 272.909C202.421 273.227 202.37 273.567 202.389 273.906C202.361 274.606 202.61 275.289 203.081 275.808C203.289 276.042 203.544 276.229 203.83 276.356C204.116 276.483 204.426 276.548 204.739 276.545C205.05 276.545 205.358 276.48 205.642 276.353C205.926 276.227 206.181 276.043 206.389 275.812Z" fill="black"/>
<path d="M210.1 276.28C209.509 275.626 209.196 274.766 209.229 273.885C209.21 273.456 209.276 273.027 209.425 272.625C209.574 272.222 209.802 271.853 210.096 271.539C210.381 271.247 210.724 271.017 211.103 270.864C211.482 270.711 211.889 270.639 212.297 270.653C212.83 270.641 213.355 270.785 213.806 271.067C214.223 271.327 214.557 271.701 214.768 272.144V270.765H215.597V277.105H214.768V275.712C214.558 276.164 214.223 276.547 213.802 276.815C213.351 277.099 212.826 277.243 212.293 277.229C211.881 277.238 211.471 277.158 211.093 276.995C210.714 276.831 210.376 276.587 210.1 276.28ZM214.076 275.812C214.515 275.289 214.755 274.629 214.755 273.947C214.755 273.265 214.515 272.605 214.076 272.082C213.864 271.855 213.607 271.674 213.322 271.551C213.036 271.428 212.728 271.367 212.418 271.37C212.109 271.364 211.803 271.422 211.518 271.54C211.232 271.657 210.974 271.832 210.759 272.053C210.525 272.299 210.343 272.59 210.225 272.909C210.108 273.227 210.057 273.567 210.075 273.906C210.047 274.606 210.296 275.289 210.768 275.808C210.975 276.042 211.231 276.229 211.517 276.356C211.803 276.483 212.113 276.548 212.426 276.545C212.737 276.545 213.044 276.479 213.328 276.353C213.613 276.227 213.867 276.042 214.076 275.812Z" fill="black"/>
<path d="M217.144 272.522C217.142 272.265 217.2 272.011 217.313 271.78C217.426 271.549 217.591 271.348 217.795 271.192C218.266 270.82 218.854 270.629 219.453 270.653C220.026 270.618 220.589 270.807 221.025 271.179C221.416 271.563 221.64 272.086 221.646 272.634H220.817C220.82 272.45 220.784 272.268 220.711 272.099C220.639 271.93 220.533 271.778 220.399 271.652C220.264 271.526 220.106 271.43 219.932 271.369C219.759 271.309 219.574 271.285 219.391 271.299C219.016 271.276 218.646 271.391 218.351 271.622C218.233 271.716 218.137 271.835 218.072 271.971C218.007 272.107 217.973 272.255 217.973 272.406C217.966 272.539 217.987 272.673 218.035 272.798C218.083 272.923 218.157 273.036 218.251 273.131C218.446 273.314 218.689 273.439 218.952 273.491C219.228 273.552 219.533 273.625 219.868 273.711C220.202 273.797 220.508 273.888 220.784 273.985C221.066 274.082 221.311 274.264 221.485 274.507C221.68 274.791 221.778 275.132 221.763 275.476C221.764 275.72 221.707 275.96 221.596 276.176C221.485 276.393 221.323 276.579 221.124 276.72C220.64 277.06 220.057 277.232 219.466 277.209C218.865 277.245 218.273 277.054 217.807 276.674C217.604 276.49 217.44 276.266 217.326 276.017C217.212 275.768 217.15 275.498 217.144 275.224H217.973C217.974 275.403 218.011 275.581 218.083 275.746C218.154 275.912 218.258 276.061 218.388 276.185C218.687 276.447 219.077 276.581 219.474 276.558C219.855 276.581 220.232 276.478 220.548 276.264C220.668 276.177 220.765 276.063 220.831 275.931C220.898 275.799 220.931 275.653 220.929 275.505C220.936 275.371 220.915 275.237 220.867 275.111C220.82 274.986 220.746 274.872 220.651 274.776C220.455 274.593 220.213 274.467 219.951 274.411C219.674 274.345 219.369 274.269 219.035 274.183C218.7 274.098 218.395 274.009 218.118 273.918C217.822 273.825 217.566 273.637 217.388 273.383C217.21 273.129 217.121 272.823 217.136 272.513L217.144 272.522Z" fill="black"/>
<path d="M180.785 299.059V288.418H178.844V286.056H183.405V299.047L180.785 299.059Z" fill="black"/>
<path d="M188.894 297.597C188.901 297.79 188.867 297.982 188.796 298.162C188.725 298.342 188.617 298.505 188.479 298.641C188.342 298.777 188.179 298.883 187.999 298.955C187.82 299.026 187.628 299.06 187.435 299.055C187.047 299.055 186.674 298.901 186.4 298.627C186.125 298.353 185.971 297.98 185.971 297.592C185.971 297.205 186.125 296.832 186.4 296.558C186.674 296.284 187.047 296.13 187.435 296.13C187.628 296.125 187.82 296.159 187.999 296.231C188.179 296.302 188.342 296.408 188.479 296.544C188.618 296.681 188.726 296.845 188.798 297.027C188.869 297.208 188.902 297.402 188.894 297.597Z" fill="black"/>
<path d="M190.412 285.815H199.234V287.718L194.292 299.064H191.49L196.672 287.941H190.412V285.815Z" fill="black"/>
<path d="M201.58 285.687H209.781V287.937H203.923V290.975C204.221 290.666 204.583 290.425 204.984 290.27C205.513 290.067 206.077 289.971 206.643 289.988C207.279 289.99 207.908 290.131 208.483 290.403C209.017 290.634 209.476 291.008 209.81 291.484C210.413 292.34 210.734 293.363 210.726 294.41C210.756 295.028 210.664 295.646 210.455 296.228C210.246 296.811 209.924 297.346 209.507 297.804C208.695 298.652 207.569 299.076 206.129 299.076C204.689 299.076 203.557 298.732 202.733 298.044C201.918 297.382 201.395 296.427 201.278 295.384H203.803C203.902 295.845 204.173 296.251 204.561 296.519C205.036 296.819 205.593 296.964 206.153 296.934C206.446 296.949 206.738 296.896 207.007 296.779C207.275 296.662 207.513 296.483 207.7 296.258C208.088 295.743 208.283 295.108 208.251 294.464C208.291 293.84 208.091 293.225 207.691 292.744C207.501 292.542 207.269 292.383 207.011 292.279C206.754 292.174 206.477 292.127 206.199 292.139C205.027 292.139 204.307 292.609 204.039 293.548H201.585L201.58 285.687Z" fill="black"/>
<path d="M212.683 292.392C212.683 287.972 214.328 285.761 217.617 285.761C220.906 285.761 222.55 287.972 222.55 292.392C222.55 296.812 220.906 299.022 217.617 299.022C214.328 299.022 212.683 296.812 212.683 292.392ZM218.707 288.376C218.369 288.22 218 288.138 217.627 288.138C217.254 288.138 216.886 288.22 216.547 288.376C216.265 288.515 216.022 288.723 215.842 288.981C215.656 289.276 215.523 289.602 215.448 289.943C215.355 290.318 215.291 290.701 215.258 291.086C215.227 291.454 215.212 291.888 215.212 292.388C215.212 292.888 215.227 293.32 215.258 293.685C215.291 294.07 215.355 294.453 215.448 294.828C215.524 295.171 215.657 295.499 215.842 295.798C216.02 296.06 216.263 296.271 216.547 296.411C216.886 296.568 217.254 296.649 217.627 296.649C218 296.649 218.369 296.568 218.707 296.411C218.991 296.271 219.234 296.06 219.412 295.798C219.597 295.499 219.73 295.171 219.806 294.828C219.899 294.453 219.963 294.07 219.996 293.685C220.027 293.317 220.042 292.885 220.042 292.388C220.042 291.89 220.027 291.457 219.996 291.086C219.963 290.701 219.899 290.318 219.806 289.943C219.731 289.602 219.598 289.277 219.412 288.981C219.228 288.722 218.981 288.514 218.695 288.376H218.707Z" fill="black"/>
<path d="M379.595 85.365V83.293H374.944V82.746L379.218 76.5964H380.387V82.5637H381.631V83.293H380.387V85.365H379.595ZM379.595 82.5637V77.2843L375.968 82.5803L379.595 82.5637Z" fill="white"/>
<path d="M384.583 76.6876C385.384 76.3815 386.27 76.3815 387.07 76.6876C387.4 76.8245 387.693 77.0375 387.924 77.3092C388.157 77.6002 388.332 77.9318 388.443 78.2872C388.573 78.6804 388.663 79.0858 388.712 79.4972C388.809 80.4368 388.809 81.3838 388.712 82.3234C388.663 82.7348 388.573 83.1402 388.443 83.5334C388.332 83.8888 388.157 84.2205 387.924 84.5114C387.693 84.7832 387.4 84.9963 387.07 85.133C386.27 85.4391 385.384 85.4391 384.583 85.133C384.253 84.9964 383.96 84.7834 383.729 84.5114C383.497 84.2206 383.321 83.8889 383.211 83.5334C383.08 83.1401 382.99 82.7348 382.941 82.3234C382.844 81.3838 382.844 80.4368 382.941 79.4972C382.99 79.0859 383.08 78.6805 383.211 78.2872C383.321 77.9318 383.497 77.6001 383.729 77.3092C383.96 77.0372 384.253 76.8242 384.583 76.6876ZM386.793 77.4004C386.491 77.26 386.163 77.1873 385.831 77.1873C385.498 77.1873 385.17 77.26 384.869 77.4004C384.621 77.526 384.406 77.7093 384.243 77.935C384.077 78.1879 383.957 78.4686 383.891 78.7638C383.808 79.0914 383.752 79.4255 383.725 79.7624C383.7 80.0829 383.687 80.4628 383.687 80.902C383.687 81.3413 383.7 81.7211 383.725 82.0416C383.752 82.3785 383.808 82.7126 383.891 83.0403C383.957 83.3354 384.077 83.6162 384.243 83.8691C384.406 84.0948 384.62 84.2782 384.869 84.4036C385.17 84.544 385.498 84.6168 385.831 84.6168C386.163 84.6168 386.491 84.544 386.793 84.4036C387.041 84.2782 387.256 84.0948 387.419 83.8691C387.585 83.6162 387.704 83.3354 387.771 83.0403C387.854 82.7125 387.909 82.3785 387.937 82.0416C387.962 81.7211 387.974 81.3413 387.974 80.902C387.974 80.4628 387.962 80.0829 387.937 79.7624C387.909 79.4255 387.854 79.0915 387.771 78.7638C387.704 78.4686 387.585 78.1879 387.419 77.935C387.26 77.7113 387.052 77.5282 386.809 77.4004H386.793Z" fill="white"/>
<path d="M390.781 79.8453C390.622 79.681 390.497 79.4863 390.414 79.2727C390.332 79.0591 390.293 78.831 390.3 78.6021C390.289 78.3711 390.325 78.1402 390.405 77.9234C390.486 77.7066 390.61 77.5084 390.769 77.3409C390.929 77.1734 391.121 77.04 391.333 76.9489C391.546 76.8577 391.775 76.8107 392.006 76.8107C392.238 76.8107 392.467 76.8577 392.68 76.9489C392.892 77.04 393.084 77.1734 393.244 77.3409C393.403 77.5084 393.527 77.7066 393.608 77.9234C393.688 78.1402 393.724 78.3711 393.712 78.6021C393.72 78.831 393.681 79.0591 393.599 79.2727C393.516 79.4863 393.391 79.681 393.232 79.8453C392.899 80.1546 392.461 80.3266 392.006 80.3266C391.552 80.3266 391.114 80.1546 390.781 79.8453ZM390.715 85.365L395.69 76.9653H396.557L391.581 85.365H390.715ZM392.908 78.5773C392.908 77.7871 392.606 77.3921 392 77.3921C391.395 77.3921 391.092 77.7871 391.092 78.5773C391.092 79.3674 391.395 79.7624 392 79.7624C392.606 79.7624 392.908 79.3715 392.908 78.5897V78.5773ZM394.073 85.0045C393.914 84.8402 393.789 84.6455 393.706 84.4319C393.623 84.2183 393.585 83.9902 393.592 83.7613C393.581 83.5303 393.617 83.2994 393.697 83.0826C393.778 82.8658 393.902 82.6676 394.061 82.5001C394.221 82.3326 394.413 82.1992 394.625 82.1081C394.838 82.0169 395.067 81.9699 395.298 81.9699C395.53 81.9699 395.759 82.0169 395.971 82.1081C396.184 82.1992 396.376 82.3326 396.535 82.5001C396.695 82.6676 396.819 82.8658 396.899 83.0826C396.98 83.2994 397.016 83.5303 397.004 83.7613C397.012 83.9902 396.973 84.2183 396.891 84.4319C396.808 84.6455 396.683 84.8402 396.523 85.0045C396.19 85.3138 395.753 85.4858 395.298 85.4858C394.844 85.4858 394.406 85.3138 394.073 85.0045ZM396.2 83.7613C396.2 82.9712 395.897 82.5762 395.292 82.5762C394.687 82.5762 394.384 82.9712 394.384 83.7613C394.384 84.5514 394.687 84.9465 395.292 84.9465C395.897 84.9465 396.199 84.5528 396.196 83.7655L396.2 83.7613Z" fill="white"/>
<path d="M335.558 166.134V165.55L336.387 164.833L337.217 164.104C337.41 163.933 337.664 163.703 337.979 163.416C338.294 163.129 338.538 162.89 338.709 162.699C338.883 162.508 339.078 162.282 339.294 162.019C339.48 161.798 339.645 161.559 339.787 161.307C340.034 160.843 340.168 160.328 340.177 159.802C340.186 159.349 340.03 158.907 339.737 158.559C339.559 158.375 339.342 158.233 339.101 158.143C338.861 158.054 338.604 158.019 338.348 158.041C338.079 158.024 337.808 158.066 337.557 158.165C337.305 158.264 337.079 158.417 336.893 158.613C336.541 159.033 336.345 159.561 336.338 160.109H335.533C335.527 159.336 335.825 158.592 336.362 158.037C336.623 157.792 336.93 157.601 337.265 157.476C337.601 157.351 337.958 157.294 338.315 157.308C339.026 157.275 339.722 157.517 340.26 157.983C340.514 158.229 340.712 158.526 340.84 158.855C340.968 159.184 341.023 159.537 341.002 159.89C340.997 160.271 340.922 160.649 340.782 161.004C340.651 161.358 340.483 161.697 340.28 162.015C340.041 162.37 339.771 162.704 339.476 163.014C339.128 163.393 338.851 163.681 338.647 163.88C338.442 164.079 338.127 164.355 337.702 164.709C337.287 165.071 337.023 165.304 336.91 165.409H341.308V166.139L335.558 166.134Z" fill="white"/>
<path d="M342.975 157.353H348.174V158.083H343.767V161.199C343.985 160.872 344.289 160.611 344.646 160.445C345.054 160.24 345.504 160.137 345.96 160.142C346.406 160.135 346.849 160.224 347.258 160.403C347.615 160.555 347.925 160.802 348.153 161.116C348.565 161.749 348.773 162.492 348.75 163.246C348.77 164.024 348.503 164.782 348 165.376C347.738 165.672 347.412 165.904 347.048 166.057C346.683 166.209 346.288 166.276 345.894 166.255C345.132 166.299 344.379 166.078 343.763 165.629C343.242 165.204 342.893 164.605 342.78 163.942H343.572C343.691 164.41 343.97 164.822 344.36 165.107C344.78 165.395 345.281 165.54 345.79 165.521C346.092 165.542 346.395 165.495 346.676 165.382C346.956 165.27 347.208 165.095 347.411 164.87C347.794 164.384 347.988 163.777 347.958 163.159C347.958 161.642 347.236 160.884 345.79 160.884C345.346 160.875 344.91 161.007 344.546 161.261C344.177 161.521 343.89 161.88 343.717 162.297H342.963L342.975 157.353Z" fill="white"/>
<path d="M350.653 160.722C350.494 160.558 350.369 160.363 350.286 160.15C350.204 159.936 350.165 159.708 350.172 159.479C350.161 159.248 350.197 159.017 350.277 158.801C350.358 158.584 350.482 158.386 350.641 158.218C350.801 158.051 350.993 157.917 351.205 157.826C351.418 157.735 351.647 157.688 351.879 157.688C352.11 157.688 352.339 157.735 352.552 157.826C352.764 157.917 352.956 158.051 353.116 158.218C353.275 158.386 353.399 158.584 353.48 158.801C353.56 159.017 353.596 159.248 353.585 159.479C353.592 159.708 353.553 159.936 353.471 160.15C353.388 160.363 353.263 160.558 353.104 160.722C352.771 161.032 352.333 161.204 351.879 161.204C351.424 161.204 350.986 161.032 350.653 160.722ZM350.587 166.255L355.562 157.855H356.429L351.454 166.255H350.587ZM352.78 159.467C352.78 158.677 352.478 158.282 351.872 158.282C351.267 158.282 350.964 158.677 350.964 159.467C350.964 160.257 351.267 160.652 351.872 160.652C352.478 160.652 352.78 160.257 352.78 159.467ZM353.945 165.894C353.786 165.73 353.661 165.535 353.578 165.321C353.495 165.108 353.457 164.88 353.464 164.651C353.453 164.42 353.489 164.189 353.569 163.972C353.65 163.755 353.774 163.557 353.933 163.39C354.093 163.222 354.285 163.089 354.497 162.998C354.71 162.907 354.939 162.859 355.17 162.859C355.402 162.859 355.631 162.907 355.843 162.998C356.056 163.089 356.248 163.222 356.408 163.39C356.567 163.557 356.691 163.755 356.771 163.972C356.852 164.189 356.888 164.42 356.876 164.651C356.884 164.88 356.845 165.108 356.763 165.321C356.68 165.535 356.555 165.73 356.395 165.894C356.063 166.204 355.625 166.377 355.17 166.377C354.716 166.377 354.278 166.204 353.945 165.894ZM356.072 164.651C356.072 163.858 355.769 163.463 355.164 163.466C354.559 163.468 354.256 163.864 354.256 164.651C354.256 165.441 354.559 165.836 355.164 165.836C355.769 165.836 356.071 165.438 356.068 164.643L356.072 164.651Z" fill="white"/>
<path d="M297.085 239.333C297.657 238.931 298.346 238.727 299.046 238.753C299.732 238.717 300.405 238.946 300.928 239.391C301.156 239.595 301.336 239.845 301.457 240.126C301.578 240.407 301.637 240.71 301.628 241.015C301.632 241.464 301.486 241.901 301.214 242.259C300.943 242.622 300.56 242.887 300.123 243.013V243.075C300.619 243.19 301.053 243.485 301.342 243.904C301.654 244.385 301.808 244.951 301.782 245.524C301.787 245.84 301.726 246.154 301.603 246.445C301.479 246.737 301.296 246.999 301.065 247.215C300.795 247.455 300.48 247.64 300.139 247.759C299.797 247.878 299.436 247.928 299.075 247.907C298.331 247.939 297.599 247.713 297.002 247.269C296.733 247.051 296.513 246.781 296.354 246.474C296.194 246.167 296.1 245.831 296.077 245.487H296.869C296.894 245.722 296.966 245.95 297.08 246.158C297.194 246.366 297.347 246.549 297.532 246.697C297.966 247.033 298.506 247.204 299.054 247.177C299.317 247.195 299.581 247.16 299.83 247.073C300.079 246.987 300.309 246.852 300.505 246.676C300.674 246.505 300.806 246.302 300.893 246.078C300.98 245.854 301.02 245.615 301.011 245.375C301.039 245.087 300.992 244.797 300.873 244.533C300.755 244.269 300.569 244.041 300.335 243.871C299.715 243.534 299.012 243.38 298.308 243.427H298.038V242.71H298.32C300.001 242.71 300.841 242.178 300.841 241.115C300.851 240.895 300.814 240.676 300.731 240.472C300.649 240.268 300.524 240.085 300.364 239.934C299.988 239.62 299.505 239.463 299.017 239.495C298.526 239.47 298.04 239.6 297.628 239.867C297.456 239.992 297.311 240.151 297.204 240.335C297.096 240.518 297.027 240.721 297.002 240.932H296.172C296.201 240.616 296.298 240.31 296.455 240.034C296.612 239.758 296.827 239.519 297.085 239.333Z" fill="white"/>
<path d="M303.639 238.948H308.838V239.677H304.431V242.793C304.649 242.466 304.953 242.205 305.31 242.039C305.717 241.833 306.168 241.728 306.624 241.732C307.071 241.725 307.513 241.814 307.922 241.993C308.28 242.146 308.589 242.392 308.818 242.706C309.229 243.339 309.438 244.082 309.415 244.836C309.436 245.619 309.168 246.382 308.66 246.978C308.398 247.274 308.072 247.507 307.708 247.659C307.343 247.811 306.949 247.879 306.554 247.857C305.793 247.901 305.039 247.68 304.423 247.231C303.902 246.806 303.553 246.207 303.44 245.545H304.232C304.351 246.013 304.63 246.425 305.02 246.709C305.44 246.997 305.941 247.142 306.45 247.123C306.752 247.145 307.055 247.097 307.336 246.985C307.617 246.872 307.868 246.697 308.071 246.473C308.454 245.987 308.648 245.379 308.619 244.761C308.619 243.245 307.896 242.486 306.45 242.486C306.006 242.477 305.571 242.609 305.207 242.864C304.838 243.123 304.55 243.483 304.377 243.9H303.623L303.639 238.948Z" fill="white"/>
<path d="M311.317 242.317C311.158 242.152 311.033 241.958 310.95 241.744C310.868 241.53 310.829 241.302 310.837 241.073C310.825 240.842 310.861 240.611 310.941 240.395C311.022 240.178 311.146 239.98 311.305 239.812C311.465 239.645 311.657 239.511 311.87 239.42C312.082 239.329 312.311 239.282 312.543 239.282C312.774 239.282 313.003 239.329 313.216 239.42C313.428 239.511 313.62 239.645 313.78 239.812C313.939 239.98 314.063 240.178 314.144 240.395C314.224 240.611 314.26 240.842 314.249 241.073C314.256 241.302 314.218 241.53 314.135 241.744C314.052 241.958 313.927 242.152 313.768 242.317C313.435 242.627 312.997 242.799 312.543 242.799C312.088 242.799 311.65 242.627 311.317 242.317ZM311.251 247.849L316.226 239.449H317.093L312.118 247.849H311.251ZM313.428 241.061C313.428 240.268 313.125 239.873 312.52 239.876C311.914 239.879 311.612 240.274 311.612 241.061C311.612 241.851 311.914 242.246 312.52 242.246C313.125 242.246 313.428 241.851 313.428 241.061ZM314.593 247.488C314.433 247.324 314.308 247.129 314.226 246.916C314.143 246.702 314.104 246.474 314.112 246.245C314.1 246.014 314.136 245.783 314.217 245.566C314.297 245.349 314.421 245.151 314.581 244.984C314.74 244.816 314.932 244.683 315.145 244.592C315.357 244.501 315.586 244.454 315.818 244.454C316.049 244.454 316.278 244.501 316.491 244.592C316.704 244.683 316.895 244.816 317.055 244.984C317.215 245.151 317.338 245.349 317.419 245.566C317.5 245.783 317.535 246.014 317.524 246.245C317.531 246.474 317.493 246.702 317.41 246.916C317.327 247.129 317.203 247.324 317.043 247.488C316.71 247.798 316.272 247.969 315.818 247.969C315.363 247.969 314.926 247.798 314.593 247.488ZM316.72 246.245C316.72 245.455 316.417 245.06 315.812 245.06C315.206 245.06 314.904 245.455 314.904 246.245C314.904 247.038 315.206 247.433 315.812 247.43C316.417 247.427 316.728 247.03 316.744 246.237L316.72 246.245Z" fill="white"/>
</g>
<defs>
<clipPath id="clip0_7_52">
<rect width="397" height="319" fill="white"/>
</clipPath>
</defs>
</svg>
