<svg width="780" height="187" viewBox="0 0 780 187" fill="none" xmlns="http://www.w3.org/2000/svg">
<g clip-path="url(#clip0_17_428)">
<path d="M6.44 98.1001L5.76 96.1801H1.86L1.18 98.1001H0L3.19 89.3301H4.45L7.59 98.1001H6.44ZM2.19 95.2701H5.43L3.81 90.7301L2.19 95.2701Z" fill="white"/>
<path d="M11.4102 97.1699H12.3602V98.1099H11.2002C10.9559 98.1464 10.7064 98.1255 10.4715 98.0488C10.2367 97.972 10.0229 97.8416 9.84726 97.6679C9.67159 97.4942 9.53882 97.2819 9.45949 97.0479C9.38016 96.8139 9.35645 96.5647 9.39023 96.3199V92.0899H8.49023V91.1499H9.39023V89.4199H10.5902V91.1399H12.3902V92.0799H10.5902V96.3099C10.5649 96.5463 10.6331 96.7832 10.7802 96.9699C10.9591 97.1107 11.1829 97.1817 11.4102 97.1699Z" fill="white"/>
<path d="M14.7798 91.1501V92.3301C14.9572 91.9249 15.2546 91.584 15.632 91.3533C16.0093 91.1226 16.4484 91.0133 16.8898 91.0401V92.2401H16.5898C16.3455 92.2225 16.1001 92.2542 15.8682 92.3332C15.6363 92.4122 15.4226 92.537 15.2398 92.7001C14.8857 93.1541 14.7209 93.7274 14.7798 94.3001V98.1001H13.5898V91.1501H14.7798Z" fill="white"/>
<path d="M18.7798 97.2C18.1334 96.4881 17.7923 95.5509 17.8298 94.59C17.8086 94.1207 17.8808 93.6519 18.0422 93.2108C18.2035 92.7696 18.4508 92.3649 18.7698 92.02C19.0722 91.696 19.4396 91.4394 19.848 91.2671C20.2564 91.0947 20.6966 91.0106 21.1398 91.02C21.686 91.0085 22.224 91.1543 22.6898 91.44C23.1167 91.7048 23.4627 92.0819 23.6898 92.53V91.15H24.8498V98.1H23.7098V96.68C23.4848 97.1349 23.1388 97.519 22.7098 97.79C22.2447 98.0773 21.7062 98.2232 21.1598 98.21C20.7137 98.2229 20.2702 98.1393 19.8595 97.965C19.4487 97.7907 19.0804 97.5297 18.7798 97.2ZM23.0098 96.52C23.4553 95.9929 23.6997 95.3251 23.6997 94.635C23.6997 93.9449 23.4553 93.2771 23.0098 92.75C22.7979 92.5225 22.5407 92.3418 22.2548 92.2195C21.969 92.0972 21.6607 92.0361 21.3498 92.04C21.0414 92.0346 20.7352 92.0922 20.4497 92.2091C20.1643 92.326 19.9058 92.4998 19.6898 92.72C19.4539 92.9665 19.271 93.2588 19.1524 93.5786C19.0337 93.8985 18.9818 94.2393 18.9998 94.58C18.9719 95.2841 19.2235 95.9706 19.6998 96.49C19.9113 96.7175 20.1674 96.8989 20.4522 97.0229C20.7369 97.147 21.0442 97.211 21.3548 97.211C21.6654 97.211 21.9726 97.147 22.2574 97.0229C22.5421 96.8989 22.7983 96.7175 23.0098 96.49V96.52Z" fill="white"/>
<path d="M27.9099 89.8101C27.8373 89.8848 27.7501 89.9437 27.6538 89.9833C27.5574 90.0228 27.454 90.0422 27.3499 90.0401C27.2473 90.042 27.1454 90.0225 27.0507 89.9829C26.956 89.9433 26.8706 89.8845 26.7999 89.8101C26.7275 89.7363 26.6707 89.6487 26.6329 89.5525C26.5951 89.4563 26.5771 89.3534 26.5799 89.2501C26.581 89.122 26.6137 88.9962 26.675 88.8838C26.7362 88.7713 26.8243 88.6757 26.9313 88.6053C27.0383 88.535 27.161 88.492 27.2885 88.4803C27.416 88.4686 27.5445 88.4885 27.6625 88.5382C27.7806 88.5879 27.8845 88.6659 27.9653 88.7653C28.046 88.8647 28.1011 88.9824 28.1255 89.1082C28.1499 89.2339 28.1431 89.3637 28.1055 89.4861C28.0678 89.6085 28.0007 89.7198 27.9099 89.8101ZM26.7699 98.1001V91.1501H27.9199V98.1001H26.7699Z" fill="white"/>
<path d="M30.9698 91.1501V92.3301C31.1471 91.9249 31.4446 91.584 31.8219 91.3533C32.1993 91.1226 32.6384 91.0133 33.0798 91.0401V92.2401H32.7798C32.5355 92.2225 32.2901 92.2542 32.0582 92.3332C31.8263 92.4122 31.6126 92.537 31.4298 92.7001C31.0757 93.1541 30.9109 93.7274 30.9698 94.3001V98.1001H29.8198V91.1501H30.9698Z" fill="white"/>
<mask id="mask0_17_428" style="mask-type:luminance" maskUnits="userSpaceOnUse" x="-30" y="-6" width="825" height="194">
<path d="M794.62 -5.33008H-29.4902V187.42H794.62V-5.33008Z" fill="white"/>
</mask>
<g mask="url(#mask0_17_428)">
<path d="M212.83 185.42C212 184.559 211.537 183.41 211.537 182.215C211.537 181.02 212 179.871 212.83 179.01C213.248 178.597 213.745 178.272 214.291 178.056C214.838 177.839 215.422 177.735 216.01 177.75C216.867 177.736 217.712 177.961 218.45 178.4C219.165 178.831 219.72 179.484 220.03 180.26H218.59C218.346 179.784 217.968 179.389 217.502 179.126C217.036 178.863 216.503 178.743 215.97 178.78C215.533 178.766 215.098 178.842 214.692 179.004C214.286 179.166 213.917 179.409 213.61 179.72C213.011 180.415 212.681 181.302 212.681 182.22C212.681 183.138 213.011 184.025 213.61 184.72C213.911 185.042 214.277 185.298 214.684 185.47C215.09 185.642 215.528 185.727 215.97 185.72C216.515 185.729 217.053 185.594 217.53 185.33C217.984 185.072 218.353 184.686 218.59 184.22H219.98C219.67 184.996 219.115 185.649 218.4 186.08C217.662 186.518 216.817 186.743 215.96 186.73C215.377 186.732 214.8 186.617 214.262 186.392C213.724 186.167 213.237 185.836 212.83 185.42Z" fill="white"/>
<path d="M222.339 185.69C222.007 185.346 221.747 184.938 221.575 184.492C221.404 184.045 221.323 183.568 221.339 183.09C221.32 182.611 221.398 182.134 221.57 181.687C221.742 181.239 222.004 180.832 222.339 180.49C223.017 179.856 223.911 179.503 224.839 179.503C225.768 179.503 226.661 179.856 227.339 180.49C227.675 180.832 227.937 181.239 228.109 181.686C228.281 182.133 228.36 182.611 228.339 183.09C228.363 183.568 228.286 184.045 228.114 184.491C227.942 184.937 227.678 185.342 227.339 185.68C227.001 186.007 226.602 186.263 226.164 186.435C225.727 186.607 225.259 186.69 224.789 186.68C224.335 186.695 223.882 186.614 223.46 186.444C223.038 186.273 222.656 186.016 222.339 185.69ZM224.799 185.69C225.114 185.693 225.425 185.633 225.716 185.513C226.006 185.393 226.269 185.215 226.489 184.99C226.736 184.733 226.927 184.428 227.051 184.095C227.175 183.761 227.229 183.405 227.209 183.05C227.231 182.698 227.182 182.345 227.065 182.011C226.948 181.678 226.766 181.372 226.529 181.11C226.316 180.885 226.058 180.707 225.772 180.587C225.487 180.466 225.179 180.406 224.869 180.41C224.562 180.404 224.257 180.463 223.974 180.584C223.691 180.704 223.438 180.884 223.229 181.11C222.765 181.646 222.528 182.342 222.569 183.05C222.526 183.753 222.751 184.447 223.199 184.99C223.395 185.224 223.64 185.411 223.917 185.539C224.193 185.667 224.495 185.732 224.799 185.73V185.69Z" fill="white"/>
<path d="M230.99 179.62V180.75C231.212 180.35 231.543 180.021 231.945 179.801C232.347 179.582 232.803 179.481 233.26 179.51C233.615 179.501 233.969 179.565 234.299 179.697C234.629 179.83 234.929 180.028 235.18 180.28C235.449 180.572 235.656 180.916 235.788 181.291C235.92 181.666 235.975 182.063 235.95 182.46V186.57H234.81V182.65C234.849 182.074 234.666 181.505 234.3 181.06C234.118 180.875 233.899 180.732 233.658 180.639C233.416 180.546 233.158 180.505 232.9 180.52C232.64 180.505 232.38 180.545 232.137 180.639C231.894 180.732 231.673 180.875 231.49 181.06C231.121 181.504 230.938 182.074 230.98 182.65V186.57H229.83V179.57L230.99 179.62Z" fill="white"/>
<path d="M236.99 179.62H238.22L240.35 185.49L242.49 179.62H243.73L241.01 186.62H239.71L236.99 179.62Z" fill="white"/>
<path d="M247.74 186.68C247.287 186.695 246.836 186.613 246.417 186.441C245.998 186.269 245.621 186.009 245.31 185.68C244.663 184.969 244.325 184.03 244.37 183.07C244.347 182.595 244.42 182.121 244.583 181.675C244.746 181.228 244.997 180.819 245.32 180.47C245.98 179.85 246.849 179.5 247.755 179.491C248.661 179.482 249.537 179.813 250.21 180.42C250.515 180.733 250.754 181.104 250.912 181.511C251.07 181.918 251.144 182.353 251.13 182.79C251.131 183.018 251.114 183.245 251.08 183.47H245.59C245.589 184.08 245.822 184.666 246.24 185.11C246.442 185.31 246.683 185.466 246.947 185.57C247.212 185.673 247.496 185.721 247.78 185.71C248.202 185.724 248.62 185.612 248.98 185.39C249.293 185.19 249.54 184.901 249.69 184.56H250.93C250.714 185.166 250.32 185.692 249.8 186.07C249.2 186.497 248.475 186.712 247.74 186.68ZM249.3 181.05C248.881 180.668 248.336 180.457 247.77 180.457C247.204 180.457 246.658 180.668 246.24 181.05C245.818 181.481 245.578 182.057 245.57 182.66H249.94C249.948 182.361 249.895 182.064 249.783 181.787C249.671 181.51 249.503 181.259 249.29 181.05H249.3Z" fill="white"/>
<path d="M253.709 179.62V180.8C253.887 180.395 254.184 180.054 254.561 179.823C254.939 179.592 255.378 179.483 255.819 179.51V180.71H255.519C255.275 180.692 255.03 180.724 254.798 180.803C254.566 180.882 254.352 181.007 254.169 181.17C253.815 181.624 253.65 182.197 253.709 182.77V186.57H252.589V179.57L253.709 179.62Z" fill="white"/>
<path d="M259.499 185.63H260.449V186.57H259.279C259.035 186.606 258.786 186.585 258.551 186.509C258.316 186.432 258.102 186.302 257.926 186.128C257.751 185.954 257.618 185.742 257.539 185.508C257.459 185.274 257.436 185.025 257.469 184.78V180.55H256.589V179.61H257.489V177.89H258.589V179.61H260.389V180.55H258.589V184.78C258.564 185.016 258.632 185.253 258.779 185.44C258.88 185.519 258.996 185.577 259.12 185.609C259.244 185.642 259.373 185.649 259.499 185.63Z" fill="white"/>
<path d="M264.59 186.68C264.137 186.695 263.686 186.613 263.267 186.441C262.848 186.269 262.471 186.009 262.16 185.68C261.513 184.969 261.175 184.03 261.22 183.07C261.198 182.595 261.27 182.121 261.433 181.675C261.596 181.228 261.847 180.819 262.17 180.47C262.83 179.85 263.699 179.5 264.605 179.491C265.511 179.482 266.387 179.813 267.06 180.42C267.365 180.733 267.604 181.104 267.762 181.511C267.92 181.918 267.994 182.353 267.98 182.79C267.981 183.018 267.964 183.245 267.93 183.47H262.4C262.399 184.08 262.632 184.666 263.05 185.11C263.252 185.31 263.493 185.466 263.758 185.57C264.022 185.673 264.306 185.721 264.59 185.71C265.012 185.724 265.43 185.612 265.79 185.39C266.103 185.19 266.35 184.901 266.5 184.56H267.74C267.524 185.166 267.13 185.692 266.61 186.07C266.021 186.489 265.312 186.703 264.59 186.68ZM266.15 181.05C265.732 180.668 265.186 180.457 264.62 180.457C264.054 180.457 263.508 180.668 263.09 181.05C262.668 181.481 262.428 182.057 262.42 182.66H266.79C266.803 182.364 266.756 182.069 266.651 181.792C266.546 181.515 266.386 181.263 266.18 181.05H266.15Z" fill="white"/>
<path d="M270.589 179.62V180.8C270.767 180.395 271.064 180.054 271.442 179.823C271.819 179.592 272.258 179.483 272.699 179.51V180.71H272.399C272.155 180.692 271.91 180.724 271.678 180.803C271.446 180.882 271.232 181.007 271.049 181.17C270.695 181.624 270.53 182.197 270.589 182.77V186.57H269.439V179.57L270.589 179.62Z" fill="white"/>
<path d="M500.35 186.57L496.97 177.8H498.2L500.96 185.34L503.75 177.8H504.98L501.59 186.57H500.35Z" fill="white"/>
<path d="M509.14 186.68C508.687 186.695 508.236 186.613 507.817 186.441C507.398 186.268 507.021 186.009 506.71 185.68C506.063 184.969 505.725 184.03 505.77 183.07C505.747 182.595 505.82 182.121 505.983 181.674C506.146 181.228 506.397 180.819 506.72 180.47C507.379 179.855 508.244 179.509 509.145 179.5C510.046 179.491 510.918 179.819 511.59 180.42C511.895 180.733 512.134 181.104 512.292 181.511C512.45 181.918 512.524 182.353 512.51 182.79C512.51 183.018 512.494 183.245 512.46 183.47H506.93C506.929 184.079 507.162 184.666 507.58 185.11C507.782 185.31 508.023 185.466 508.287 185.569C508.552 185.673 508.835 185.72 509.12 185.71C509.542 185.724 509.96 185.612 510.32 185.39C510.633 185.19 510.88 184.901 511.03 184.56H512.27C512.054 185.166 511.66 185.692 511.14 186.07C510.557 186.485 509.855 186.699 509.14 186.68ZM510.7 181.05C510.281 180.668 509.736 180.457 509.17 180.457C508.603 180.457 508.058 180.668 507.64 181.05C507.218 181.481 506.978 182.057 506.97 182.66H511.34C511.348 182.361 511.295 182.064 511.183 181.787C511.072 181.51 510.903 181.259 510.69 181.05H510.7Z" fill="white"/>
<path d="M515.11 179.62V180.75C515.332 180.35 515.663 180.021 516.065 179.801C516.467 179.582 516.923 179.481 517.38 179.51C517.735 179.501 518.089 179.565 518.419 179.697C518.749 179.83 519.049 180.028 519.3 180.28C519.569 180.572 519.776 180.916 519.908 181.291C520.04 181.666 520.095 182.063 520.07 182.46V186.57H518.93V182.65C518.969 182.074 518.786 181.505 518.42 181.06C518.238 180.875 518.019 180.732 517.778 180.639C517.537 180.546 517.278 180.505 517.02 180.52C516.76 180.505 516.5 180.545 516.257 180.639C516.014 180.732 515.793 180.875 515.61 181.06C515.241 181.504 515.058 182.074 515.1 182.65V186.57H513.95V179.57L515.11 179.62Z" fill="white"/>
<path d="M522.399 185.66C521.753 184.948 521.412 184.011 521.449 183.05C521.428 182.581 521.5 182.112 521.662 181.671C521.823 181.23 522.07 180.825 522.389 180.48C522.692 180.156 523.06 179.9 523.468 179.728C523.876 179.556 524.316 179.471 524.759 179.48C525.306 179.468 525.844 179.614 526.309 179.9C526.736 180.165 527.082 180.542 527.309 180.99V177.18H528.479V186.55H527.309V185.13C527.085 185.585 526.739 185.969 526.309 186.24C525.844 186.527 525.306 186.673 524.759 186.66C524.317 186.671 523.878 186.588 523.471 186.415C523.064 186.243 522.699 185.985 522.399 185.66ZM526.629 184.98C527.075 184.453 527.319 183.785 527.319 183.095C527.319 182.405 527.075 181.737 526.629 181.21C526.417 180.982 526.16 180.802 525.875 180.679C525.589 180.557 525.28 180.496 524.969 180.5C524.661 180.495 524.355 180.552 524.069 180.669C523.784 180.786 523.525 180.96 523.309 181.18C523.074 181.426 522.891 181.719 522.772 182.039C522.653 182.358 522.601 182.699 522.619 183.04C522.592 183.744 522.843 184.431 523.319 184.95C523.531 185.177 523.787 185.359 524.072 185.483C524.357 185.607 524.664 185.671 524.974 185.671C525.285 185.671 525.592 185.607 525.877 185.483C526.162 185.359 526.418 185.177 526.629 184.95V184.98Z" fill="white"/>
<path d="M533.3 186.68C532.847 186.695 532.396 186.613 531.977 186.441C531.558 186.269 531.181 186.009 530.87 185.68C530.223 184.969 529.885 184.03 529.93 183.07C529.908 182.595 529.98 182.121 530.143 181.675C530.306 181.228 530.557 180.819 530.88 180.47C531.54 179.85 532.409 179.5 533.315 179.491C534.221 179.482 535.097 179.813 535.77 180.42C536.075 180.733 536.314 181.104 536.472 181.511C536.63 181.918 536.704 182.353 536.69 182.79C536.691 183.018 536.674 183.245 536.64 183.47H531.11C531.109 184.08 531.342 184.666 531.76 185.11C531.962 185.31 532.203 185.466 532.468 185.57C532.732 185.673 533.016 185.721 533.3 185.71C533.722 185.724 534.14 185.612 534.5 185.39C534.813 185.19 535.06 184.901 535.21 184.56H536.45C536.234 185.166 535.84 185.692 535.32 186.07C534.731 186.489 534.022 186.703 533.3 186.68ZM534.86 181.05C534.441 180.668 533.896 180.457 533.33 180.457C532.764 180.457 532.218 180.668 531.8 181.05C531.378 181.481 531.138 182.057 531.13 182.66H535.5C535.51 182.362 535.458 182.065 535.348 181.788C535.238 181.511 535.072 181.26 534.86 181.05Z" fill="white"/>
<path d="M539.279 179.62V180.8C539.457 180.395 539.754 180.054 540.132 179.823C540.509 179.592 540.948 179.483 541.389 179.51V180.71H541.089C540.845 180.692 540.6 180.724 540.368 180.803C540.136 180.882 539.922 181.007 539.739 181.17C539.385 181.624 539.22 182.197 539.279 182.77V186.57H538.129V179.57L539.279 179.62Z" fill="white"/>
</g>
<path d="M349.37 6.01992V9.63992H348.22V0.859919H351.07C351.888 0.802585 352.696 1.06019 353.33 1.57992C353.58 1.80146 353.779 2.07429 353.913 2.37975C354.048 2.68522 354.115 3.01614 354.11 3.34992C354.132 3.9791 353.93 4.59565 353.54 5.08992C353.1 5.5849 352.489 5.89559 351.83 5.95992L354.25 9.62992H352.81L350.51 6.00992L349.37 6.01992ZM349.37 1.78992V5.10992H351.07C351.579 5.14854 352.084 4.99113 352.48 4.66992C352.642 4.50683 352.767 4.31076 352.846 4.09506C352.926 3.87936 352.958 3.64909 352.94 3.41992C352.94 2.31325 352.317 1.75992 351.07 1.75992L349.37 1.78992Z" fill="white"/>
<path d="M358.94 9.7501C358.487 9.7649 358.036 9.68342 357.617 9.51103C357.199 9.33864 356.821 9.07928 356.51 8.7501C355.863 8.03886 355.525 7.10023 355.57 6.1401C355.548 5.66536 355.62 5.19095 355.783 4.74456C355.946 4.29817 356.197 3.88872 356.52 3.5401C357.18 2.91973 358.049 2.57024 358.955 2.56098C359.861 2.55172 360.737 2.88336 361.41 3.4901C361.715 3.8027 361.954 4.1738 362.112 4.58109C362.27 4.98838 362.344 5.42343 362.33 5.8601C362.331 6.08772 362.314 6.31509 362.28 6.5401H356.75C356.749 7.14965 356.982 7.73632 357.4 8.1801C357.602 8.38003 357.843 8.53642 358.108 8.63962C358.373 8.74282 358.656 8.79063 358.94 8.7801C359.363 8.7938 359.78 8.68248 360.14 8.4601C360.455 8.25713 360.702 7.96461 360.85 7.6201H362.09C361.874 8.22582 361.48 8.75216 360.96 9.1301C360.373 9.55257 359.663 9.77041 358.94 9.7501ZM360.5 4.1201C360.082 3.73853 359.536 3.527 358.97 3.527C358.404 3.527 357.858 3.73853 357.44 4.1201C357.019 4.55154 356.779 5.12757 356.77 5.7301H361.14C361.149 5.43217 361.098 5.13545 360.987 4.85845C360.877 4.58145 360.711 4.33011 360.5 4.1201Z" fill="white"/>
<path d="M363.77 9.64002V0.27002H364.92V9.64002H363.77Z" fill="white"/>
<path d="M367.31 8.73003C366.664 8.01809 366.323 7.08089 366.36 6.12003C366.339 5.65077 366.411 5.18197 366.572 4.74082C366.734 4.29966 366.981 3.89491 367.3 3.55003C367.602 3.22598 367.97 2.96941 368.378 2.79709C368.787 2.62477 369.227 2.54058 369.67 2.55003C370.216 2.53857 370.754 2.68435 371.22 2.97003C371.647 3.23482 371.993 3.61189 372.22 4.06003V2.69003H373.38V9.64003H372.22V8.22003C371.995 8.67493 371.649 9.059 371.22 9.33003C370.755 9.61729 370.216 9.76321 369.67 9.75003C369.227 9.75874 368.786 9.67219 368.379 9.49622C367.972 9.32026 367.608 9.05898 367.31 8.73003ZM371.54 8.05003C371.775 7.79696 371.958 7.49936 372.076 7.17477C372.195 6.85018 372.247 6.50516 372.23 6.16003C372.252 5.81997 372.207 5.47886 372.097 5.15625C371.988 4.83365 371.815 4.53588 371.59 4.28003C371.378 4.0525 371.121 3.8718 370.835 3.74952C370.549 3.62725 370.241 3.56611 369.93 3.57003C369.622 3.56466 369.315 3.62219 369.03 3.7391C368.745 3.85601 368.486 4.02986 368.27 4.25003C368.034 4.49657 367.851 4.78878 367.733 5.10866C367.614 5.42854 367.562 5.76932 367.58 6.11003C367.551 6.8143 367.803 7.50126 368.28 8.02003C368.492 8.24748 368.748 8.4289 369.032 8.55294C369.317 8.67699 369.624 8.74102 369.935 8.74102C370.246 8.74102 370.553 8.67699 370.838 8.55294C371.122 8.4289 371.379 8.24748 371.59 8.02003L371.54 8.05003Z" fill="white"/>
<path d="M375.78 8.75991C375.135 8.05174 374.797 7.11681 374.84 6.15991C374.797 5.20302 375.135 4.26809 375.78 3.55991C376.091 3.23073 376.469 2.97137 376.888 2.79898C377.307 2.62659 377.757 2.54511 378.21 2.55991C378.921 2.53657 379.622 2.73966 380.21 3.13991C380.756 3.55301 381.147 4.1377 381.32 4.79991H380.08C379.959 4.41394 379.713 4.07949 379.38 3.84991C379.019 3.61252 378.592 3.49367 378.16 3.50991C377.86 3.4983 377.562 3.55428 377.286 3.67372C377.011 3.79317 376.766 3.973 376.57 4.19991C376.138 4.75449 375.924 5.44837 375.97 6.14991C375.924 6.85146 376.138 7.54534 376.57 8.09991C376.766 8.32683 377.011 8.50666 377.286 8.6261C377.562 8.74555 377.86 8.80153 378.16 8.78991C378.579 8.83031 378.998 8.72363 379.347 8.48822C379.695 8.25281 379.951 7.90336 380.07 7.49991H381.31C381.121 8.14939 380.729 8.72091 380.19 9.12991C379.608 9.54666 378.906 9.76095 378.19 9.73991C377.742 9.75444 377.296 9.67471 376.881 9.50589C376.466 9.33706 376.091 9.08292 375.78 8.75991Z" fill="white"/>
<path d="M384.03 1.35006C383.957 1.42472 383.87 1.48366 383.774 1.52323C383.678 1.56279 383.574 1.58214 383.47 1.58006C383.367 1.58196 383.265 1.56249 383.171 1.5229C383.076 1.4833 382.991 1.42444 382.92 1.35006C382.848 1.27626 382.791 1.18865 382.753 1.09244C382.715 0.996227 382.697 0.893391 382.7 0.79006C382.699 0.68679 382.718 0.584286 382.756 0.488495C382.795 0.392704 382.852 0.305533 382.925 0.232041C382.997 0.158549 383.084 0.100199 383.179 0.060376C383.274 0.0205535 383.377 5.14278e-05 383.48 5.99159e-05C383.583 -0.0012361 383.684 0.0185057 383.779 0.0580653C383.873 0.0976248 383.959 0.156162 384.03 0.23006C384.176 0.37791 384.258 0.577304 384.258 0.78506C384.258 0.992816 384.176 1.19221 384.03 1.34006V1.35006ZM382.89 9.64006V2.69006H384.04V9.64006H382.89Z" fill="white"/>
<path d="M386.45 8.76012C386.118 8.41555 385.859 8.00794 385.687 7.56137C385.515 7.1148 385.435 6.63833 385.45 6.16012C385.431 5.68143 385.509 5.20381 385.681 4.75666C385.853 4.30952 386.115 3.90231 386.45 3.56012C387.128 2.92601 388.022 2.57324 388.95 2.57324C389.879 2.57324 390.772 2.92601 391.45 3.56012C391.786 3.90196 392.048 4.30911 392.22 4.75634C392.392 5.20358 392.47 5.68137 392.45 6.16012C392.475 6.6394 392.399 7.1186 392.227 7.56655C392.055 8.01449 391.79 8.42117 391.45 8.76012C391.112 9.08692 390.713 9.34354 390.275 9.51518C389.838 9.68681 389.37 9.77006 388.9 9.76012C388.445 9.77273 387.992 9.69033 387.57 9.51815C387.148 9.34598 386.767 9.08782 386.45 8.76012ZM388.91 8.76012C389.225 8.76348 389.536 8.7032 389.827 8.5829C390.117 8.4626 390.38 8.28477 390.6 8.06012C390.847 7.80326 391.038 7.49854 391.162 7.16483C391.285 6.83113 391.339 6.47555 391.32 6.12012C391.33 5.77093 391.27 5.42331 391.145 5.09723C391.02 4.77116 390.831 4.47307 390.59 4.22012C390.376 3.99412 390.116 3.8152 389.829 3.6947C389.541 3.5742 389.232 3.51475 388.92 3.52012C388.613 3.51333 388.307 3.57227 388.025 3.69299C387.742 3.8137 387.488 3.99342 387.28 4.22012C386.816 4.75601 386.579 5.45214 386.62 6.16012C386.577 6.86325 386.802 7.55663 387.25 8.10012C387.457 8.33377 387.713 8.51799 388 8.63916C388.288 8.76033 388.599 8.81534 388.91 8.80012V8.76012Z" fill="white"/>
<path d="M395.1 2.69012V3.81012C395.323 3.40986 395.654 3.08089 396.056 2.8614C396.457 2.6419 396.913 2.5409 397.37 2.57012C397.726 2.56143 398.079 2.62522 398.409 2.7576C398.739 2.88998 399.039 3.08818 399.29 3.34012C399.559 3.63259 399.766 3.97656 399.898 4.35125C400.031 4.72594 400.086 5.12357 400.06 5.52012V9.63012H398.92V5.71012C398.962 5.13108 398.779 4.55815 398.41 4.11012C398.229 3.92576 398.01 3.78224 397.768 3.68912C397.527 3.59601 397.269 3.55544 397.01 3.57012C396.748 3.55513 396.486 3.59646 396.241 3.69133C395.996 3.78619 395.774 3.9324 395.59 4.12012C395.219 4.56714 395.036 5.14083 395.08 5.72012V9.64012H393.93V2.69012H395.1Z" fill="white"/>
<path d="M402.39 8.72994C401.744 8.018 401.403 7.0808 401.44 6.11994C401.419 5.65068 401.491 5.18189 401.653 4.74073C401.814 4.29957 402.061 3.89483 402.38 3.54994C402.683 3.22639 403.05 2.97016 403.459 2.79788C403.867 2.6256 404.307 2.54112 404.75 2.54994C405.296 2.53848 405.834 2.68427 406.3 2.96994C406.727 3.23433 407.073 3.61151 407.3 4.05994V2.68994H408.47V9.63994H407.3V8.21994C407.076 8.67514 406.729 9.05932 406.3 9.32994C405.835 9.61721 405.297 9.76312 404.75 9.74994C404.307 9.75865 403.867 9.6721 403.459 9.49614C403.052 9.32017 402.688 9.05889 402.39 8.72994ZM406.62 8.04994C406.855 7.79687 407.038 7.49927 407.156 7.17469C407.275 6.8501 407.327 6.50508 407.31 6.15994C407.322 5.81438 407.264 5.47001 407.14 5.14713C407.017 4.82424 406.83 4.52939 406.59 4.27994C406.378 4.05241 406.121 3.87171 405.835 3.74943C405.549 3.62716 405.241 3.56602 404.93 3.56994C404.622 3.56457 404.315 3.6221 404.03 3.73901C403.745 3.85592 403.486 4.02977 403.27 4.24994C403.035 4.49849 402.853 4.79271 402.736 5.11438C402.619 5.43604 402.569 5.7783 402.59 6.11994C402.561 6.82421 402.813 7.51117 403.29 8.02994C403.502 8.2574 403.758 8.43881 404.043 8.56286C404.327 8.6869 404.635 8.75093 404.945 8.75093C405.256 8.75093 405.563 8.6869 405.848 8.56286C406.132 8.43881 406.389 8.2574 406.6 8.02994L406.62 8.04994Z" fill="white"/>
<path d="M411.53 2.68992V3.86992C411.707 3.46474 412.005 3.12376 412.382 2.89306C412.759 2.66235 413.198 2.55305 413.64 2.57992V3.77992H413.34C413.096 3.76232 412.85 3.79397 412.618 3.87299C412.386 3.95201 412.173 4.07678 411.99 4.23992C411.636 4.69387 411.471 5.2672 411.53 5.83992V9.63992H410.38V2.68992H411.53Z" fill="white"/>
<mask id="mask1_17_428" style="mask-type:luminance" maskUnits="userSpaceOnUse" x="-30" y="-6" width="825" height="194">
<path d="M794.62 -5.33008H-29.4902V187.42H794.62V-5.33008Z" fill="white"/>
</mask>
<g mask="url(#mask1_17_428)">
<path d="M47.5 98.6299C48.4889 98.6299 49.4556 98.3366 50.2779 97.7872C51.1001 97.2378 51.741 96.4569 52.1194 95.5433C52.4978 94.6297 52.5969 93.6243 52.4039 92.6544C52.211 91.6845 51.7348 90.7936 51.0355 90.0944C50.3363 89.3951 49.4454 88.9189 48.4755 88.726C47.5055 88.533 46.5002 88.632 45.5866 89.0105C44.673 89.3889 43.8921 90.0298 43.3427 90.852C42.7932 91.6743 42.5 92.641 42.5 93.6299C42.5 94.956 43.0268 96.2277 43.9645 97.1654C44.9021 98.1031 46.1739 98.6299 47.5 98.6299Z" fill="#02E29B"/>
</g>
<path d="M54.7202 93.6201H114.27" stroke="#02E29B" stroke-width="0.87" stroke-linecap="round" stroke-linejoin="round"/>
<path d="M173.13 170.09V152.46" stroke="#02E29B" stroke-width="0.87" stroke-linecap="round" stroke-linejoin="round"/>
<path d="M309.19 171.95H174.08" stroke="#02E29B" stroke-width="0.87" stroke-linecap="round" stroke-linejoin="round"/>
<path d="M311.08 170.09V152.46" stroke="#02E29B" stroke-width="0.87" stroke-linecap="round" stroke-linejoin="round"/>
<path d="M450.29 170.09V152.46" stroke="#02E29B" stroke-width="0.87" stroke-linecap="round" stroke-linejoin="round"/>
<path d="M586.34 171.95H451.23" stroke="#02E29B" stroke-width="0.87" stroke-linecap="round" stroke-linejoin="round"/>
<path d="M588.23 170.09V152.46" stroke="#02E29B" stroke-width="0.87" stroke-linecap="round" stroke-linejoin="round"/>
<path d="M449.65 17.1499V34.7799" stroke="#02E29B" stroke-width="0.87" stroke-linecap="round" stroke-linejoin="round"/>
<path d="M313.6 15.29H448.71" stroke="#02E29B" stroke-width="0.87" stroke-linecap="round" stroke-linejoin="round"/>
<path d="M311.71 17.1499V34.7799" stroke="#02E29B" stroke-width="0.87" stroke-linecap="round" stroke-linejoin="round"/>
<path d="M735.78 98.1001L735.1 96.1801H731.2L730.52 98.1001H729.34L732.53 89.3301H733.8L736.98 98.1001H735.78ZM731.53 95.2601H734.77L733.15 90.7301L731.53 95.2601Z" fill="white"/>
<path d="M739.59 91.1501V92.2801C739.812 91.8798 740.144 91.5509 740.546 91.3314C740.947 91.1119 741.403 91.0109 741.86 91.0401C742.216 91.0314 742.569 91.0952 742.899 91.2276C743.229 91.36 743.529 91.5581 743.78 91.8101C744.049 92.1026 744.256 92.4465 744.388 92.8212C744.521 93.1959 744.576 93.5935 744.55 93.9901V98.1001H743.41V94.1801C743.452 93.601 743.269 93.0281 742.9 92.5801C742.719 92.3957 742.5 92.2522 742.258 92.1591C742.017 92.066 741.758 92.0254 741.5 92.0401C741.24 92.0253 740.98 92.0657 740.737 92.1588C740.494 92.2519 740.274 92.3955 740.09 92.5801C739.719 93.0271 739.536 93.6008 739.58 94.1801V98.1001H738.43V91.1501H739.59Z" fill="white"/>
<path d="M746.92 97.1999C746.274 96.488 745.932 95.5508 745.97 94.5899C745.949 94.1207 746.021 93.6519 746.182 93.2107C746.344 92.7695 746.591 92.3648 746.91 92.0199C747.213 91.6964 747.58 91.4401 747.989 91.2678C748.397 91.0956 748.837 91.0111 749.28 91.0199C749.826 91.0084 750.364 91.1542 750.83 91.4399C751.257 91.7043 751.603 92.0815 751.83 92.5299V91.1499H753V98.0999H751.83V96.6799C751.605 97.1351 751.259 97.5193 750.83 97.7899C750.365 98.0772 749.826 98.2231 749.28 98.2099C748.837 98.2199 748.398 98.1349 747.99 97.9607C747.583 97.7865 747.218 97.527 746.92 97.1999ZM751.15 96.5199C751.594 95.992 751.837 95.3245 751.837 94.6349C751.837 93.9453 751.594 93.2778 751.15 92.7499C750.938 92.5224 750.681 92.3417 750.395 92.2194C750.109 92.0971 749.801 92.036 749.49 92.0399C749.182 92.0345 748.875 92.0921 748.59 92.209C748.304 92.3259 748.046 92.4997 747.83 92.7199C747.594 92.9665 747.411 93.2587 747.292 93.5785C747.174 93.8984 747.122 94.2392 747.14 94.5799C747.112 95.284 747.364 95.9706 747.84 96.4899C748.051 96.7174 748.308 96.8988 748.592 97.0228C748.877 97.1469 749.184 97.2109 749.495 97.2109C749.806 97.2109 750.113 97.1469 750.398 97.0228C750.682 96.8988 750.938 96.7174 751.15 96.4899V96.5199Z" fill="white"/>
<path d="M754.9 98.1V88.73H756.05V98.1H754.9Z" fill="white"/>
<path d="M759.09 89.81C759.018 89.8846 758.93 89.9436 758.834 89.9832C758.738 90.0227 758.634 90.0421 758.53 90.04C758.428 90.0419 758.326 90.0224 758.231 89.9828C758.136 89.9432 758.051 89.8844 757.98 89.81C757.837 89.6609 757.756 89.462 757.756 89.255C757.756 89.048 757.837 88.8491 757.98 88.7C758.127 88.5541 758.326 88.4727 758.534 88.4736C758.741 88.4746 758.939 88.5578 759.085 88.705C759.231 88.8522 759.312 89.0513 759.312 89.2585C759.311 89.4658 759.227 89.6641 759.08 89.81H759.09ZM757.95 98.1V91.15H759.1V98.1H757.95Z" fill="white"/>
<path d="M760.75 93.1099C760.75 92.8251 760.816 92.5441 760.942 92.289C761.069 92.034 761.253 91.8118 761.48 91.6399C762.019 91.2217 762.689 91.009 763.37 91.0399C764.029 91.0011 764.679 91.2118 765.19 91.6299C765.412 91.836 765.591 92.0848 765.715 92.3615C765.838 92.6381 765.905 92.9369 765.91 93.2399H764.72C764.72 92.8873 764.58 92.5492 764.33 92.2999C764.055 92.0577 763.696 91.9322 763.33 91.9499C762.971 91.935 762.618 92.0445 762.33 92.2599C762.212 92.3562 762.116 92.4783 762.052 92.617C761.988 92.7557 761.957 92.9072 761.96 93.0599C761.956 93.2112 761.993 93.3607 762.067 93.4927C762.141 93.6247 762.249 93.7343 762.38 93.8099C762.687 93.999 763.026 94.1311 763.38 94.1999C763.78 94.2799 764.18 94.3733 764.58 94.4799C764.962 94.5845 765.308 94.792 765.58 95.0799C765.728 95.2489 765.842 95.4454 765.914 95.6582C765.986 95.8709 766.015 96.0958 766 96.3199C765.997 96.5873 765.929 96.8498 765.802 97.085C765.675 97.3202 765.492 97.5209 765.27 97.6699C764.718 98.0571 764.054 98.2505 763.38 98.2199C762.708 98.2553 762.045 98.0496 761.51 97.6399C761.275 97.4419 761.084 97.1959 760.951 96.9182C760.818 96.6405 760.746 96.3377 760.74 96.0299H761.93C761.931 96.2048 761.968 96.3777 762.038 96.5377C762.109 96.6978 762.212 96.8415 762.34 96.9599C762.637 97.2059 763.015 97.3309 763.4 97.3099C763.776 97.3311 764.148 97.2292 764.46 97.0199C764.581 96.938 764.68 96.8277 764.748 96.6986C764.816 96.5696 764.851 96.4258 764.85 96.2799C764.857 96.1452 764.833 96.0107 764.781 95.8862C764.729 95.7616 764.65 95.6502 764.55 95.5599C764.332 95.3746 764.071 95.2473 763.79 95.1899L762.79 94.9499C762.43 94.8566 762.097 94.7566 761.79 94.6499C761.488 94.5461 761.223 94.3547 761.03 94.0999C760.828 93.8108 760.73 93.462 760.75 93.1099Z" fill="white"/>
<path d="M768.16 97.1999C767.514 96.488 767.173 95.5508 767.21 94.5899C767.189 94.1207 767.261 93.6519 767.423 93.2107C767.584 92.7695 767.831 92.3648 768.15 92.0199C768.453 91.6964 768.821 91.4401 769.229 91.2678C769.637 91.0956 770.077 91.0111 770.52 91.0199C771.066 91.0084 771.604 91.1542 772.07 91.4399C772.497 91.7043 772.843 92.0815 773.07 92.5299V91.1499H774.24V98.0999H773.07V96.6799C772.846 97.1351 772.5 97.5193 772.07 97.7899C771.605 98.0772 771.067 98.2231 770.52 98.2099C770.077 98.2199 769.638 98.1349 769.231 97.9607C768.824 97.7865 768.459 97.527 768.16 97.1999ZM772.39 96.5199C772.834 95.992 773.077 95.3245 773.077 94.6349C773.077 93.9453 772.834 93.2778 772.39 92.7499C772.178 92.5224 771.921 92.3417 771.635 92.2194C771.349 92.0971 771.041 92.036 770.73 92.0399C770.422 92.0345 770.116 92.0921 769.83 92.209C769.545 92.3259 769.286 92.4997 769.07 92.7199C768.834 92.9665 768.651 93.2587 768.533 93.5785C768.414 93.8984 768.362 94.2392 768.38 94.5799C768.352 95.284 768.604 95.9706 769.08 96.4899C769.292 96.7174 769.548 96.8988 769.833 97.0228C770.117 97.1469 770.425 97.2109 770.735 97.2109C771.046 97.2109 771.353 97.1469 771.638 97.0228C771.923 96.8988 772.179 96.7174 772.39 96.4899V96.5199Z" fill="white"/>
<path d="M777.3 91.1501V92.3301C777.477 91.9249 777.775 91.584 778.152 91.3533C778.529 91.1226 778.968 91.0133 779.41 91.0401V92.2401H779.11C778.866 92.2225 778.62 92.2542 778.388 92.3332C778.156 92.4122 777.943 92.537 777.76 92.7001C777.406 93.1541 777.241 93.7274 777.3 94.3001V98.1001H776.15V91.1501H777.3Z" fill="white"/>
<mask id="mask2_17_428" style="mask-type:luminance" maskUnits="userSpaceOnUse" x="-30" y="-6" width="825" height="194">
<path d="M794.62 -5.33008H-29.4902V187.42H794.62V-5.33008Z" fill="white"/>
</mask>
<g mask="url(#mask2_17_428)">
<path d="M714.8 98.6299C715.789 98.6299 716.755 98.3366 717.578 97.7872C718.4 97.2378 719.041 96.4569 719.419 95.5433C719.798 94.6297 719.897 93.6243 719.704 92.6544C719.511 91.6845 719.035 90.7936 718.335 90.0944C717.636 89.3951 716.745 88.9189 715.775 88.726C714.805 88.533 713.8 88.632 712.886 89.0105C711.973 89.3889 711.192 90.0298 710.642 90.852C710.093 91.6743 709.8 92.641 709.8 93.6299C709.8 94.956 710.327 96.2277 711.264 97.1654C712.202 98.1031 713.474 98.6299 714.8 98.6299Z" fill="#02E29B"/>
</g>
<path d="M648.99 93.6201H708.54" stroke="#02E29B" stroke-width="0.87" stroke-linecap="round" stroke-linejoin="round"/>
<mask id="mask3_17_428" style="mask-type:luminance" maskUnits="userSpaceOnUse" x="115" y="36" width="116" height="115">
<path d="M230.12 36.21H115.51V150.51H230.12V36.21Z" fill="white"/>
</mask>
<g mask="url(#mask3_17_428)">
<path d="M230.12 36.2H115.51V150.5H230.12V36.2Z" fill="url(#paint0_linear_17_428)"/>
</g>
<mask id="mask4_17_428" style="mask-type:luminance" maskUnits="userSpaceOnUse" x="254" y="36" width="115" height="115">
<path d="M368.7 36.21H254.77V150.51H368.7V36.21Z" fill="white"/>
</mask>
<g mask="url(#mask4_17_428)">
<path d="M368.7 36.2H254.77V150.5H368.7V36.2Z" fill="url(#paint1_linear_17_428)"/>
</g>
<mask id="mask5_17_428" style="mask-type:luminance" maskUnits="userSpaceOnUse" x="393" y="36" width="114" height="115">
<path d="M506.68 36.21H393.1V150.51H506.68V36.21Z" fill="white"/>
</mask>
<g mask="url(#mask5_17_428)">
<path d="M506.68 36.2H393.1V150.5H506.68V36.2Z" fill="url(#paint2_linear_17_428)"/>
</g>
<mask id="mask6_17_428" style="mask-type:luminance" maskUnits="userSpaceOnUse" x="531" y="36" width="115" height="115">
<path d="M645.01 36.21H531.43V150.51H645.01V36.21Z" fill="white"/>
</mask>
<g mask="url(#mask6_17_428)">
<path d="M645.01 36.2H531.43V150.5H645.01V36.2Z" fill="url(#paint3_linear_17_428)"/>
</g>
<mask id="mask7_17_428" style="mask-type:luminance" maskUnits="userSpaceOnUse" x="145" y="65" width="56" height="43">
<path d="M200.31 65.45H145.31V107.59H200.31V65.45Z" fill="white"/>
</mask>
<g mask="url(#mask7_17_428)">
<path d="M173.13 80.7199C174.011 80.7177 174.882 80.8981 175.69 81.2499C175.749 80.0067 176.17 78.8078 176.9 77.7999C176.393 77.6941 175.877 77.6405 175.36 77.6399H170.36C169.842 77.6402 169.326 77.6939 168.82 77.7999C169.601 78.8798 170.024 80.1772 170.03 81.5099C170.977 80.9904 172.04 80.7187 173.12 80.7199" fill="black"/>
<path d="M178.75 71.3499C178.742 72.5127 178.39 73.6471 177.739 74.6102C177.087 75.5733 176.165 76.322 175.089 76.762C174.012 77.202 172.83 77.3135 171.69 77.0826C170.551 76.8516 169.505 76.2885 168.685 75.4642C167.865 74.6399 167.307 73.5913 167.082 72.4505C166.857 71.3097 166.974 70.1278 167.419 69.0537C167.865 67.9796 168.618 67.0614 169.585 66.4147C170.551 65.7681 171.687 65.4219 172.85 65.4199C174.412 65.4199 175.91 66.0405 177.015 67.1451C178.12 68.2497 178.74 69.7478 178.74 71.3099" fill="black"/>
<path d="M182.11 87.2899C183.181 87.2918 184.228 86.9769 185.121 86.3849C186.013 85.7929 186.711 84.9503 187.126 83.9629C187.54 82.9755 187.654 81.8875 187.452 80.8358C187.25 79.7841 186.741 78.8156 185.99 78.0521C185.239 77.2886 184.279 76.7642 183.231 76.545C182.183 76.3257 181.093 76.4213 180.099 76.8197C179.105 77.2182 178.251 77.9017 177.644 78.7843C177.038 79.6668 176.706 80.7091 176.69 81.7799C177.558 82.3204 178.29 83.0517 178.833 83.9181C179.375 84.7846 179.713 85.7633 179.82 86.7799C180.536 87.1163 181.318 87.2905 182.11 87.2899Z" fill="black"/>
<path d="M163.59 76.4198C162.745 76.4133 161.909 76.6042 161.151 76.9774C160.392 77.3505 159.731 77.8957 159.22 78.5695C158.71 79.2432 158.363 80.0269 158.209 80.8581C158.055 81.6893 158.096 82.5451 158.331 83.3573C158.566 84.1694 158.987 84.9156 159.561 85.5363C160.135 86.157 160.846 86.6351 161.637 86.9326C162.429 87.23 163.279 87.3385 164.119 87.2495C164.96 87.1605 165.768 86.8764 166.48 86.4198C166.742 84.7234 167.643 83.1917 169 82.1398C169 82.0398 169 81.9398 169 81.8398C168.997 80.4049 168.427 79.0294 167.413 78.0138C166.399 76.9982 165.025 76.4251 163.59 76.4198Z" fill="black"/>
<path d="M185.59 76.3198C186.457 76.8609 187.19 77.5923 187.732 78.4586C188.274 79.325 188.612 80.3034 188.72 81.3198C189.781 81.816 190.975 81.9555 192.122 81.7175C193.27 81.4794 194.309 80.8766 195.086 79.999C195.862 79.1214 196.334 78.0161 196.431 76.8483C196.527 75.6805 196.244 74.5128 195.622 73.5195C195 72.5263 194.074 71.7608 192.981 71.3375C191.888 70.9141 190.688 70.8556 189.559 71.1706C188.431 71.4857 187.434 72.1574 186.719 73.0855C186.003 74.0135 185.607 75.1481 185.59 76.3198Z" fill="black"/>
<path d="M178.59 87.42C178.59 88.4939 178.272 89.5438 177.675 90.4367C177.078 91.3297 176.23 92.0257 175.238 92.4367C174.246 92.8476 173.154 92.9552 172.101 92.7457C171.047 92.5361 170.08 92.019 169.32 91.2596C168.561 90.5002 168.044 89.5326 167.834 88.4793C167.625 87.426 167.732 86.3342 168.143 85.342C168.554 84.3498 169.25 83.5018 170.143 82.9051C171.036 82.3085 172.086 81.99 173.16 81.99C173.873 81.99 174.579 82.1304 175.238 82.4033C175.897 82.6762 176.495 83.0762 177 83.5804C177.504 84.0846 177.904 84.6832 178.177 85.342C178.45 86.0008 178.59 86.7069 178.59 87.42Z" fill="black"/>
<path d="M184.41 87.6599H179.84C179.795 89.4241 179.055 91.0991 177.78 92.3199C179.484 92.8278 180.978 93.8719 182.041 95.297C183.104 96.7221 183.679 98.4521 183.68 100.23V101.97C186.188 101.956 188.668 101.435 190.97 100.44L191.33 100.26V94.6299C191.33 92.782 190.6 91.0091 189.298 89.6977C187.996 88.3864 186.228 87.6431 184.38 87.6299" fill="black"/>
<path d="M193.36 82.1999H188.79C188.746 83.9644 188.005 85.6397 186.73 86.8599C188.434 87.3679 189.928 88.4119 190.991 89.837C192.054 91.2621 192.629 92.9921 192.63 94.7699V96.5099C195.138 96.4958 197.618 95.9754 199.92 94.9799L200.28 94.7999V89.1499C200.28 87.2934 199.542 85.5129 198.23 84.2001C196.917 82.8874 195.136 82.1499 193.28 82.1499" fill="black"/>
<path d="M168.47 92.3199C167.204 91.1058 166.464 89.4435 166.41 87.6899H165.9H161.29C159.434 87.6899 157.653 88.4274 156.34 89.7402C155.028 91.053 154.29 92.8334 154.29 94.6899V100.41L154.68 100.53C157.22 101.337 159.85 101.831 162.51 102V100.3C162.511 98.5221 163.086 96.7921 164.149 95.3671C165.212 93.942 166.706 92.8979 168.41 92.3899" fill="black"/>
<path d="M175.43 93.27H170.82C168.963 93.27 167.183 94.0075 165.87 95.3202C164.557 96.633 163.82 98.4135 163.82 100.27V105.91V106L164.21 106.12C167.265 107.101 170.451 107.614 173.66 107.64C176.49 107.732 179.306 107.203 181.91 106.09L182.27 105.91V100.22C182.27 98.3721 181.539 96.5991 180.237 95.2878C178.935 93.9765 177.168 93.2332 175.32 93.22" fill="black"/>
<path d="M154.59 81.9999C155.381 82.0001 156.163 81.826 156.88 81.4899C156.988 80.4735 157.325 79.495 157.868 78.6287C158.41 77.7624 159.143 77.0309 160.01 76.4899C159.994 75.4191 159.662 74.3768 159.055 73.4942C158.449 72.6116 157.595 71.9281 156.601 71.5297C155.607 71.1313 154.517 71.0357 153.469 71.2549C152.42 71.4742 151.46 71.9986 150.709 72.7621C149.958 73.5255 149.45 74.494 149.248 75.5458C149.046 76.5975 149.159 77.6855 149.574 78.6728C149.989 79.6602 150.686 80.5029 151.579 81.0949C152.471 81.6869 153.519 82.0017 154.59 81.9999Z" fill="black"/>
<path d="M158.9 87.0299C157.638 85.8213 156.898 84.1667 156.84 82.4199H152.27C150.414 82.4199 148.633 83.1574 147.32 84.4702C146.008 85.7829 145.27 87.5634 145.27 89.4199V95.0599L145.63 95.2399C147.933 96.2329 150.412 96.7531 152.92 96.7699V95.0299C152.921 93.2521 153.496 91.5221 154.559 90.097C155.622 88.672 157.116 87.6279 158.82 87.1199" fill="black"/>
<path d="M160.92 75.9C161.74 75.5474 162.618 75.3475 163.51 75.31C164.614 75.3117 165.699 75.5975 166.66 76.14C166.875 75.9264 167.073 75.6956 167.25 75.45C166.483 74.4427 166.007 73.2441 165.875 71.985C165.743 70.7259 165.959 69.4546 166.5 68.31C165.817 67.6952 164.988 67.2659 164.092 67.0631C163.196 66.8603 162.263 66.8908 161.382 67.1517C160.501 67.4125 159.702 67.8951 159.061 68.5531C158.42 69.2111 157.958 70.0226 157.72 70.91C158.614 71.4268 159.372 72.1506 159.929 73.0206C160.485 73.8906 160.825 74.8814 160.92 75.91" fill="black"/>
<path d="M178.5 75.14C178.692 75.4412 178.913 75.7226 179.16 75.98C180.048 75.5348 181.027 75.3021 182.02 75.3C182.876 75.3191 183.723 75.4744 184.53 75.76C184.626 74.6499 185.006 73.5832 185.635 72.6634C186.264 71.7437 187.12 71.0019 188.12 70.51C187.817 69.635 187.294 68.8531 186.6 68.2402C185.906 67.6273 185.065 67.2042 184.16 67.012C183.254 66.8198 182.314 66.865 181.431 67.1433C180.548 67.4215 179.752 67.9233 179.12 68.6C179.564 69.6586 179.737 70.8116 179.622 71.9539C179.506 73.0962 179.107 74.1915 178.46 75.14" fill="black"/>
</g>
<path d="M149.11 129.48L146.77 123.08H148.14L149.89 128.19L151.64 123.08H153.02L150.67 129.48H149.11Z" fill="black"/>
<path d="M153.83 129.48V123.08H155.12V129.48H153.83Z" fill="black"/>
<path d="M158.59 124.03C158.363 124.023 158.141 124.094 157.96 124.23C157.879 124.296 157.815 124.381 157.774 124.476C157.732 124.572 157.714 124.676 157.72 124.78C157.707 124.98 157.772 125.177 157.9 125.33C158.03 125.467 158.191 125.57 158.37 125.63C158.579 125.705 158.793 125.769 159.01 125.82C159.243 125.873 159.476 125.94 159.71 126.02C159.932 126.095 160.147 126.192 160.35 126.31C160.551 126.433 160.714 126.61 160.82 126.82C160.946 127.071 161.008 127.349 161 127.63C161.001 127.889 160.945 128.145 160.836 128.38C160.727 128.615 160.568 128.823 160.37 128.99C159.906 129.386 159.309 129.59 158.7 129.56C158.101 129.588 157.51 129.415 157.02 129.07C156.81 128.909 156.642 128.699 156.53 128.459C156.419 128.218 156.367 127.955 156.38 127.69H157.76C157.759 127.815 157.786 127.938 157.839 128.051C157.891 128.164 157.968 128.264 158.063 128.344C158.159 128.424 158.27 128.483 158.391 128.515C158.511 128.547 158.637 128.552 158.76 128.53C159.014 128.545 159.264 128.463 159.46 128.3C159.545 128.224 159.613 128.129 159.658 128.024C159.703 127.919 159.724 127.805 159.72 127.69C159.722 127.569 159.691 127.449 159.632 127.344C159.572 127.238 159.485 127.151 159.38 127.09C159.128 126.933 158.85 126.821 158.56 126.76C158.24 126.687 157.906 126.597 157.56 126.49C157.237 126.388 156.949 126.198 156.73 125.94C156.501 125.658 156.38 125.303 156.39 124.94C156.381 124.675 156.433 124.412 156.542 124.171C156.651 123.93 156.815 123.718 157.02 123.55C157.484 123.188 158.062 123.004 158.65 123.03C159.218 123.001 159.78 123.159 160.25 123.48C160.457 123.646 160.623 123.856 160.738 124.095C160.852 124.334 160.911 124.595 160.91 124.86H159.5C159.484 124.638 159.384 124.43 159.22 124.28C159.051 124.117 158.825 124.027 158.59 124.03Z" fill="black"/>
<path d="M162.22 129.48V123.08H163.51V129.48H162.22Z" fill="black"/>
<path d="M164.52 124.07V123.07H169.26V124.07H167.53V129.48H166.25V124.07H164.52Z" fill="black"/>
<path d="M174.45 129.48L174.04 128.28H171.59L171.18 129.48H169.81L172.08 123.06H173.59L175.85 129.48H174.45ZM171.88 127.29H173.71L172.79 124.62L171.88 127.29Z" fill="black"/>
<path d="M180.91 123.06H182.2V129.48H180.91L178.01 125.04V129.48H176.72V123.06H178.01L180.91 127.5V123.06Z" fill="black"/>
<path d="M183.2 124.07V123.07H187.94V124.07H186.21V129.48H184.93V124.07H183.2Z" fill="black"/>
<path d="M192.59 123.06V124.06H190.19V125.74H192.32V126.74H190.19V128.51H192.59V129.51H188.89V123.09L192.59 123.06Z" fill="black"/>
<path d="M196.03 124.03C195.803 124.023 195.581 124.094 195.4 124.23C195.319 124.296 195.255 124.381 195.214 124.476C195.172 124.572 195.153 124.676 195.16 124.78C195.147 124.98 195.211 125.177 195.34 125.33C195.47 125.467 195.631 125.57 195.81 125.63C196.019 125.705 196.233 125.769 196.45 125.82C196.683 125.873 196.916 125.94 197.15 126.02C197.372 126.095 197.587 126.192 197.79 126.31C197.991 126.433 198.153 126.61 198.26 126.82C198.386 127.071 198.448 127.349 198.44 127.63C198.441 127.889 198.385 128.145 198.276 128.38C198.167 128.615 198.008 128.823 197.81 128.99C197.346 129.386 196.749 129.59 196.14 129.56C195.541 129.588 194.95 129.415 194.46 129.07C194.25 128.909 194.082 128.699 193.97 128.459C193.859 128.218 193.807 127.955 193.82 127.69H195.2C195.199 127.815 195.226 127.938 195.279 128.051C195.331 128.164 195.408 128.264 195.503 128.344C195.598 128.424 195.71 128.483 195.831 128.515C195.951 128.547 196.077 128.552 196.2 128.53C196.454 128.545 196.704 128.463 196.9 128.3C196.985 128.224 197.053 128.129 197.098 128.024C197.143 127.919 197.164 127.805 197.16 127.69C197.162 127.569 197.131 127.449 197.071 127.344C197.012 127.238 196.925 127.151 196.82 127.09C196.568 126.933 196.29 126.821 196 126.76C195.68 126.687 195.346 126.597 195 126.49C194.677 126.388 194.389 126.198 194.17 125.94C193.941 125.658 193.82 125.303 193.83 124.94C193.821 124.675 193.873 124.412 193.982 124.171C194.091 123.93 194.255 123.718 194.46 123.55C194.924 123.188 195.502 123.004 196.09 123.03C196.658 123.001 197.22 123.159 197.69 123.48C197.897 123.646 198.063 123.856 198.178 124.095C198.292 124.334 198.351 124.595 198.35 124.86H196.94C196.924 124.638 196.824 124.43 196.66 124.28C196.491 124.117 196.265 124.027 196.03 124.03Z" fill="black"/>
<mask id="mask8_17_428" style="mask-type:luminance" maskUnits="userSpaceOnUse" x="296" y="64" width="39" height="44">
<path d="M334.01 64.4099H296.35V107.54H334.01V64.4099Z" fill="white"/>
</mask>
<g mask="url(#mask8_17_428)">
<path d="M333.67 68.8897C328.8 66.8897 323.94 70.1597 319.07 67.0897V66.4197C319.07 66.1678 318.97 65.9261 318.792 65.748C318.614 65.5698 318.372 65.4697 318.12 65.4697C317.868 65.4697 317.626 65.5698 317.448 65.748C317.27 65.9261 317.17 66.1678 317.17 66.4197V80.5697L319.07 81.5697V74.3397C323.88 75.3397 328.68 70.0397 333.49 69.8597C333.623 69.8823 333.759 69.8512 333.868 69.7734C333.978 69.6956 334.052 69.5773 334.075 69.4447C334.097 69.3121 334.066 69.176 333.989 69.0663C333.911 68.9566 333.793 68.8823 333.66 68.8597" fill="black"/>
<path d="M308.59 67.9598C308.592 68.6636 308.385 69.3521 307.995 69.9379C307.604 70.5236 307.049 70.9802 306.399 71.2495C305.748 71.5188 305.033 71.5888 304.343 71.4505C303.653 71.3122 303.019 70.9719 302.523 70.4728C302.027 69.9737 301.69 69.3384 301.556 68.6475C301.421 67.9566 301.495 67.2414 301.768 66.5927C302.041 65.944 302.501 65.391 303.089 65.0041C303.677 64.6172 304.366 64.4139 305.07 64.4198C306.005 64.4277 306.899 64.8038 307.558 65.4666C308.217 66.1293 308.588 67.0252 308.59 67.9598Z" fill="black"/>
<path d="M319.07 100.79V88.2599C318.45 88.4416 317.79 88.4416 317.17 88.2599V100.85C315.75 101.22 315 102.44 313.04 103.38C313.049 103.27 313.049 103.16 313.04 103.05V94.4199C313.036 94.0677 312.94 93.7228 312.76 93.4199L309.59 87.8799V76.6599C309.59 76.5644 309.628 76.4728 309.696 76.4053C309.763 76.3378 309.855 76.2999 309.95 76.2999C310.046 76.2999 310.137 76.3378 310.205 76.4053C310.272 76.4728 310.31 76.5644 310.31 76.6599C310.31 79.8099 310.31 78.5399 310.31 81.6599C310.311 81.9678 310.395 82.2697 310.554 82.5337C310.712 82.7977 310.939 83.014 311.21 83.1599L317.28 86.4099C317.674 86.584 318.118 86.6034 318.525 86.4641C318.933 86.3249 319.272 86.0373 319.477 85.6586C319.681 85.28 319.735 84.8382 319.628 84.4214C319.522 84.0046 319.262 83.6434 318.9 83.4099L313.73 80.6399C313.73 79.6999 313.73 78.7399 313.73 76.6399C313.714 75.5753 313.281 74.5594 312.524 73.8112C311.766 73.0631 310.745 72.6424 309.68 72.6399H307.96L305.8 78.3399L306.31 75.9199C306.345 75.7534 306.321 75.5798 306.24 75.4299L305.54 74.1599L306.16 73.0099C306.181 72.9718 306.192 72.9289 306.191 72.8854C306.19 72.842 306.178 72.7995 306.156 72.7621C306.133 72.7248 306.102 72.6939 306.064 72.6724C306.026 72.651 305.984 72.6398 305.94 72.6399H304.24C304.197 72.6398 304.154 72.651 304.116 72.6724C304.078 72.6939 304.047 72.7248 304.025 72.7621C304.002 72.7995 303.99 72.842 303.989 72.8854C303.989 72.9289 303.999 72.9718 304.02 73.0099L304.64 74.1599L303.94 75.4299C303.862 75.577 303.837 75.7466 303.87 75.9099L304.31 78.3399L302.18 72.6399H300.46C299.395 72.6424 298.374 73.0631 297.617 73.8112C296.859 74.5594 296.426 75.5753 296.41 76.6399L296.35 89.2199C296.349 89.4445 296.392 89.6671 296.476 89.875C296.561 90.083 296.686 90.2723 296.844 90.432C297.002 90.5917 297.19 90.7188 297.396 90.8059C297.603 90.8931 297.826 90.9386 298.05 90.9399C298.502 90.9399 298.935 90.7611 299.256 90.4426C299.576 90.1241 299.757 89.6917 299.76 89.2399L299.82 76.6599C299.82 76.5697 299.856 76.4832 299.92 76.4195C299.983 76.3557 300.07 76.3199 300.16 76.3199C300.25 76.3199 300.337 76.3557 300.401 76.4195C300.464 76.4832 300.5 76.5697 300.5 76.6599V105.45C300.48 105.732 300.519 106.015 300.613 106.281C300.708 106.548 300.856 106.792 301.049 106.998C301.241 107.205 301.475 107.37 301.734 107.482C301.993 107.595 302.273 107.653 302.555 107.653C302.838 107.653 303.117 107.595 303.376 107.482C303.636 107.37 303.869 107.205 304.062 106.998C304.254 106.792 304.403 106.548 304.497 106.281C304.591 106.015 304.63 105.732 304.61 105.45V89.0599H305.5L308.94 94.9299V103.04C308.94 103.319 308.996 103.595 309.107 103.851C309.217 104.107 309.378 104.338 309.58 104.53C308.416 104.921 307.402 105.666 306.68 106.66C306.629 106.735 306.6 106.824 306.595 106.915C306.59 107.006 306.611 107.097 306.654 107.177C306.697 107.257 306.762 107.324 306.84 107.371C306.919 107.417 307.009 107.441 307.1 107.44H329.1C329.201 107.441 329.3 107.411 329.384 107.354C329.468 107.297 329.533 107.216 329.57 107.122C329.606 107.028 329.614 106.924 329.591 106.826C329.568 106.727 329.515 106.638 329.44 106.57C327.65 104.89 323.38 101.3 319.02 100.79" fill="black"/>
</g>
<path d="M298.05 123.08H299.34V128.5H301.39V129.5H298.04L298.05 123.08Z" fill="black"/>
<path d="M305.96 123.06V124.06H303.59V125.74H305.72V126.74H303.59V128.51H305.99V129.51H302.29V123.09L305.96 123.06Z" fill="black"/>
<path d="M311.49 129.48L311.08 128.28H308.59L308.18 129.48H306.81L309.08 123.06H310.59L312.85 129.48H311.49ZM308.92 127.29H310.75L309.83 124.62L308.92 127.29Z" fill="black"/>
<path d="M315.93 123.08C316.843 123.039 317.735 123.355 318.42 123.96C319.029 124.581 319.37 125.415 319.37 126.285C319.37 127.154 319.029 127.989 318.42 128.61C317.733 129.21 316.841 129.522 315.93 129.48H313.76V123.08H315.93ZM315.05 128.5H315.93C316.219 128.52 316.51 128.476 316.781 128.373C317.052 128.269 317.297 128.108 317.5 127.9C317.862 127.44 318.059 126.871 318.059 126.285C318.059 125.699 317.862 125.13 317.5 124.67C317.297 124.462 317.052 124.301 316.781 124.197C316.51 124.093 316.219 124.05 315.93 124.07H315.05V128.5Z" fill="black"/>
<path d="M322.46 124.03C322.233 124.023 322.011 124.094 321.83 124.23C321.749 124.296 321.685 124.381 321.644 124.476C321.602 124.572 321.583 124.676 321.59 124.78C321.577 124.98 321.641 125.177 321.77 125.33C321.9 125.467 322.061 125.57 322.24 125.63C322.449 125.705 322.663 125.769 322.88 125.82C323.113 125.873 323.346 125.94 323.58 126.02C323.802 126.095 324.017 126.192 324.22 126.31C324.421 126.433 324.583 126.61 324.69 126.82C324.816 127.071 324.878 127.349 324.87 127.63C324.871 127.889 324.815 128.145 324.706 128.38C324.597 128.615 324.438 128.823 324.24 128.99C323.776 129.386 323.179 129.59 322.57 129.56C321.971 129.588 321.38 129.415 320.89 129.07C320.68 128.909 320.512 128.699 320.4 128.459C320.289 128.218 320.237 127.955 320.25 127.69H321.59C321.589 127.815 321.616 127.938 321.669 128.051C321.721 128.164 321.798 128.264 321.893 128.344C321.988 128.424 322.1 128.483 322.221 128.515C322.341 128.547 322.467 128.552 322.59 128.53C322.844 128.545 323.094 128.463 323.29 128.3C323.375 128.224 323.443 128.129 323.488 128.024C323.533 127.919 323.554 127.805 323.55 127.69C323.552 127.569 323.521 127.449 323.461 127.344C323.402 127.238 323.315 127.151 323.21 127.09C322.958 126.933 322.68 126.821 322.39 126.76C322.07 126.687 321.736 126.597 321.39 126.49C321.067 126.388 320.779 126.198 320.56 125.94C320.331 125.658 320.21 125.303 320.22 124.94C320.211 124.675 320.263 124.412 320.372 124.171C320.481 123.93 320.645 123.718 320.85 123.55C321.314 123.188 321.892 123.004 322.48 123.03C323.048 123.001 323.61 123.159 324.08 123.48C324.286 123.646 324.453 123.856 324.567 124.095C324.682 124.334 324.741 124.595 324.74 124.86H323.33C323.314 124.638 323.214 124.43 323.05 124.28C322.891 124.126 322.681 124.037 322.46 124.03Z" fill="black"/>
<path d="M450.19 61.1101L443.97 75.8101L428.02 77.1801L440.11 87.6701L436.49 103.25L450.19 94.9801L463.9 103.25L460.27 87.6701L471.93 77.5701V77.1401L456.42 75.8101L450.19 61.1101Z" fill="black"/>
<path d="M414.59 129.55C414.159 129.56 413.731 129.483 413.33 129.323C412.93 129.163 412.566 128.924 412.26 128.62C411.652 127.987 411.312 127.143 411.312 126.265C411.312 125.387 411.652 124.543 412.26 123.91C412.89 123.314 413.723 122.982 414.59 122.982C415.457 122.982 416.291 123.314 416.92 123.91C417.528 124.543 417.868 125.387 417.868 126.265C417.868 127.143 417.528 127.987 416.92 128.62C416.614 128.924 416.25 129.163 415.85 129.323C415.45 129.483 415.021 129.56 414.59 129.55ZM416 127.79C416.338 127.363 416.521 126.834 416.521 126.29C416.521 125.746 416.338 125.217 416 124.79C415.814 124.604 415.594 124.457 415.351 124.356C415.108 124.255 414.848 124.203 414.585 124.203C414.322 124.203 414.062 124.255 413.819 124.356C413.576 124.457 413.356 124.604 413.17 124.79C412.829 125.216 412.644 125.745 412.644 126.29C412.644 126.835 412.829 127.364 413.17 127.79C413.353 127.98 413.574 128.129 413.819 128.227C414.064 128.325 414.327 128.371 414.59 128.36C414.859 128.376 415.128 128.334 415.378 128.235C415.629 128.137 415.854 127.985 416.04 127.79H416Z" fill="black"/>
<path d="M423.11 126.27C422.917 126.491 422.668 126.656 422.39 126.75C422.034 126.877 421.658 126.938 421.28 126.93H420.22V129.48H418.93V123.08H421.29C421.911 123.041 422.523 123.241 423 123.64C423.189 123.802 423.34 124.003 423.444 124.229C423.548 124.455 423.601 124.701 423.6 124.95C423.602 125.435 423.428 125.904 423.11 126.27ZM420.22 125.94H421.28C421.414 125.95 421.548 125.933 421.676 125.89C421.803 125.847 421.92 125.779 422.02 125.69C422.195 125.505 422.292 125.26 422.292 125.005C422.292 124.75 422.195 124.505 422.02 124.32C421.92 124.231 421.803 124.163 421.676 124.12C421.548 124.077 421.414 124.06 421.28 124.07H420.22V125.94Z" fill="black"/>
<path d="M427.48 129.55C427.049 129.56 426.62 129.483 426.22 129.323C425.819 129.163 425.456 128.924 425.15 128.62C424.542 127.987 424.202 127.143 424.202 126.265C424.202 125.387 424.542 124.543 425.15 123.91C425.779 123.314 426.613 122.982 427.48 122.982C428.347 122.982 429.18 123.314 429.81 123.91C430.418 124.543 430.757 125.387 430.757 126.265C430.757 127.143 430.418 127.987 429.81 128.62C429.504 128.924 429.14 129.163 428.74 129.323C428.339 129.483 427.911 129.56 427.48 129.55ZM428.89 127.79C429.227 127.363 429.411 126.834 429.411 126.29C429.411 125.746 429.227 125.217 428.89 124.79C428.704 124.604 428.483 124.457 428.241 124.356C427.998 124.255 427.738 124.203 427.475 124.203C427.212 124.203 426.952 124.255 426.709 124.356C426.466 124.457 426.246 124.604 426.06 124.79C425.719 125.216 425.533 125.745 425.533 126.29C425.533 126.835 425.719 127.364 426.06 127.79C426.243 127.98 426.464 128.129 426.709 128.227C426.954 128.325 427.216 128.371 427.48 128.36C427.743 128.372 428.007 128.327 428.251 128.229C428.496 128.13 428.717 127.981 428.9 127.79H428.89Z" fill="black"/>
<path d="M433.07 126.93V129.48H431.78V123.08H434.14C434.76 123.041 435.372 123.241 435.85 123.64C436.043 123.812 436.196 124.023 436.3 124.259C436.403 124.496 436.454 124.752 436.45 125.01C436.448 125.416 436.319 125.812 436.08 126.14C435.796 126.516 435.383 126.773 434.92 126.86L436.55 129.49H435.02L433.49 126.94L433.07 126.93ZM433.07 124.07V125.94H434.13C434.264 125.95 434.398 125.933 434.525 125.89C434.652 125.847 434.77 125.779 434.87 125.69C435.044 125.505 435.141 125.26 435.141 125.005C435.141 124.75 435.044 124.505 434.87 124.32C434.77 124.231 434.652 124.163 434.525 124.12C434.398 124.077 434.264 124.06 434.13 124.07H433.07Z" fill="black"/>
<path d="M437.35 124.07V123.07H442.09V124.07H440.36V129.48H439.08V124.07H437.35Z" fill="black"/>
<path d="M443.07 127.03V123.08H444.36V127.03C444.346 127.21 444.368 127.392 444.424 127.563C444.481 127.735 444.571 127.894 444.69 128.03C444.823 128.154 444.981 128.249 445.154 128.307C445.326 128.366 445.509 128.387 445.69 128.37C445.871 128.387 446.054 128.365 446.226 128.306C446.398 128.248 446.556 128.154 446.69 128.03C446.811 127.895 446.904 127.737 446.962 127.565C447.02 127.393 447.044 127.211 447.03 127.03V123.08H448.31V127.03C448.332 127.379 448.275 127.728 448.143 128.052C448.012 128.375 447.809 128.665 447.55 128.9C447.036 129.341 446.377 129.576 445.7 129.56C445.03 129.583 444.376 129.351 443.87 128.91C443.605 128.676 443.396 128.386 443.257 128.061C443.119 127.735 443.055 127.383 443.07 127.03Z" fill="black"/>
<path d="M453.78 123.06H455.07V129.48H453.78L450.88 125.04V129.48H449.59V123.06H450.88L453.78 127.5V123.06Z" fill="black"/>
<path d="M456.45 129.48V123.08H457.74V129.48H456.45Z" fill="black"/>
<path d="M461.3 123.08C462.213 123.039 463.106 123.355 463.79 123.96C464.399 124.581 464.74 125.415 464.74 126.285C464.74 127.154 464.399 127.989 463.79 128.61C463.103 129.21 462.211 129.522 461.3 129.48H459.13V123.08H461.3ZM460.42 128.5H461.3C461.589 128.52 461.88 128.476 462.151 128.373C462.422 128.269 462.667 128.108 462.87 127.9C463.232 127.44 463.43 126.871 463.43 126.285C463.43 125.699 463.232 125.13 462.87 124.67C462.667 124.462 462.422 124.301 462.151 124.197C461.88 124.093 461.589 124.05 461.3 124.07H460.42V128.5Z" fill="black"/>
<path d="M469.96 129.48L469.55 128.28H467.05L466.64 129.48H465.27L467.54 123.06H469.07L471.33 129.48H469.96ZM467.39 127.29H469.22L468.3 124.62L467.39 127.29Z" fill="black"/>
<path d="M474.4 123.08C475.313 123.039 476.206 123.355 476.89 123.96C477.499 124.581 477.84 125.415 477.84 126.285C477.84 127.154 477.499 127.989 476.89 128.61C476.203 129.21 475.311 129.522 474.4 129.48H472.23V123.08H474.4ZM473.52 128.5H474.4C474.69 128.52 474.98 128.476 475.251 128.373C475.522 128.269 475.767 128.108 475.97 127.9C476.333 127.44 476.53 126.871 476.53 126.285C476.53 125.699 476.333 125.13 475.97 124.67C475.767 124.462 475.522 124.301 475.251 124.197C474.98 124.093 474.69 124.05 474.4 124.07H473.52V128.5Z" fill="black"/>
<path d="M482.59 123.06V124.06H480.19V125.74H482.32V126.74H480.19V128.51H482.59V129.51H478.89V123.09L482.59 123.06Z" fill="black"/>
<path d="M485.94 124.03C485.713 124.023 485.491 124.094 485.31 124.23C485.229 124.296 485.165 124.381 485.124 124.476C485.082 124.572 485.064 124.676 485.07 124.78C485.057 124.98 485.122 125.177 485.25 125.33C485.38 125.467 485.541 125.57 485.72 125.63C485.929 125.706 486.143 125.769 486.36 125.82C486.593 125.873 486.827 125.94 487.06 126.02C487.283 126.095 487.497 126.192 487.7 126.31C487.901 126.433 488.064 126.61 488.17 126.82C488.296 127.071 488.358 127.349 488.35 127.63C488.351 127.889 488.295 128.145 488.186 128.38C488.077 128.615 487.918 128.823 487.72 128.99C487.256 129.386 486.659 129.59 486.05 129.56C485.451 129.588 484.86 129.415 484.37 129.07C484.16 128.909 483.992 128.699 483.88 128.459C483.769 128.218 483.717 127.955 483.73 127.69H485.11C485.109 127.815 485.136 127.938 485.189 128.051C485.241 128.164 485.318 128.264 485.413 128.344C485.509 128.424 485.62 128.483 485.741 128.515C485.861 128.547 485.987 128.552 486.11 128.53C486.364 128.545 486.614 128.463 486.81 128.3C486.895 128.224 486.963 128.129 487.008 128.024C487.053 127.919 487.074 127.805 487.07 127.69C487.072 127.569 487.041 127.449 486.982 127.344C486.922 127.238 486.835 127.151 486.73 127.09C486.478 126.933 486.2 126.821 485.91 126.76C485.59 126.687 485.257 126.597 484.91 126.49C484.587 126.388 484.299 126.198 484.08 125.94C483.85 125.658 483.729 125.303 483.74 124.94C483.731 124.675 483.783 124.412 483.892 124.171C484.002 123.93 484.165 123.718 484.37 123.55C484.834 123.188 485.412 123.004 486 123.03C486.568 123.001 487.13 123.159 487.6 123.48C487.807 123.645 487.974 123.855 488.089 124.094C488.203 124.333 488.262 124.595 488.26 124.86H486.85C486.834 124.638 486.734 124.43 486.57 124.28C486.401 124.118 486.174 124.028 485.94 124.03Z" fill="black"/>
<mask id="mask9_17_428" style="mask-type:luminance" maskUnits="userSpaceOnUse" x="558" y="68" width="62" height="37">
<path d="M619.04 68.73H558.05V104.31H619.04V68.73Z" fill="white"/>
</mask>
<g mask="url(#mask9_17_428)">
<path d="M572.79 71.5299C570.79 69.5299 562.12 68.9899 559.32 68.7299C559.183 68.7124 559.043 68.7257 558.912 68.769C558.78 68.8122 558.66 68.8843 558.56 68.9799C558.295 69.2553 558.117 69.6034 558.05 69.9799V92.8699C558.04 93.0393 558.066 93.209 558.126 93.3677C558.186 93.5264 558.279 93.6706 558.399 93.7906C558.519 93.9106 558.663 94.0038 558.822 94.064C558.981 94.1242 559.151 94.1501 559.32 94.1399H566.94C567.202 94.1445 567.459 94.0758 567.684 93.9414C567.908 93.8071 568.09 93.6126 568.21 93.3799C568.21 92.6199 572.78 79.1499 573.29 72.5399C573.315 72.3413 573.279 72.1398 573.189 71.9616C573.098 71.7833 572.955 71.6364 572.78 71.5399" fill="black"/>
<path d="M593.12 75.0798C588.55 73.0798 586.51 74.0798 582.45 78.0798C580.67 79.8598 579.45 82.3998 579.65 83.4198C579.65 83.6698 579.65 83.6698 580.16 83.9298C581.43 84.4398 583.16 84.6898 584.99 81.9298C585.109 81.7766 585.26 81.6514 585.433 81.5632C585.606 81.4751 585.796 81.4261 585.99 81.4198C586.611 81.3693 587.216 81.1959 587.77 80.9098C588.342 80.6105 588.938 80.3564 589.55 80.1498H590.06C590.31 80.1498 590.82 80.3998 591.06 80.3998C592.33 81.6698 594.62 83.3998 596.9 85.4798C600.46 88.2798 604.02 91.3198 605.79 93.6098H606.04C604.26 88.5298 601.21 79.8898 599.94 77.6098C597.4 76.8498 595.11 75.8298 593.08 75.0698" fill="black"/>
<path d="M617.77 71.2699C612.407 71.1612 607.068 72.0217 602.01 73.8099L601.25 74.5699C601.215 74.9221 601.304 75.2755 601.5 75.5699C603.02 78.1099 608.11 92.0899 608.87 95.6499C608.981 95.9094 609.156 96.1369 609.378 96.3116C609.6 96.4863 609.862 96.6026 610.14 96.6499H617.76C617.93 96.6601 618.099 96.6342 618.258 96.574C618.417 96.5138 618.561 96.4206 618.681 96.3006C618.801 96.1806 618.894 96.0364 618.954 95.8777C619.014 95.719 619.04 95.5493 619.03 95.3799V72.5399C619.04 72.3705 619.014 72.2008 618.954 72.0421C618.894 71.8834 618.801 71.7392 618.681 71.6192C618.561 71.4992 618.417 71.406 618.258 71.3457C618.099 71.2855 617.93 71.2597 617.76 71.2699" fill="black"/>
<path d="M594.9 87.5399C592.9 85.7599 590.83 84.2399 589.31 82.9699C589.06 83.2199 588.55 83.2199 588.55 83.4799C587.928 83.7932 587.246 83.9672 586.55 83.9899C584.55 86.5299 581.98 87.5499 579.18 86.5299C578.619 86.4073 578.105 86.1263 577.699 85.7204C577.293 85.3145 577.012 84.8007 576.89 84.2399C576.38 81.6999 578.67 78.1399 580.45 76.3599H575.37C574.325 81.5213 572.965 86.6141 571.3 91.6099C572.168 92.6061 573.104 93.5416 574.1 94.4099C578.93 98.4799 584.52 102.54 585.54 103.3C586.454 103.85 587.478 104.192 588.54 104.3H589.3L585.23 100.23C585.011 99.9903 584.894 99.6759 584.901 99.3519C584.909 99.0279 585.041 98.7193 585.27 98.4901C585.499 98.261 585.808 98.1289 586.132 98.1214C586.456 98.1139 586.77 98.2316 587.01 98.4499L592.09 103.53C592.6 104.04 593.09 103.78 593.62 103.78C594.38 103.53 594.62 103.02 594.89 102.26L589.05 96.4199C588.924 96.3051 588.823 96.166 588.752 96.0109C588.681 95.8559 588.643 95.6881 588.639 95.5178C588.635 95.3475 588.666 95.1781 588.729 95.02C588.792 94.8618 588.887 94.7181 589.008 94.5977C589.128 94.4772 589.272 94.3824 589.43 94.319C589.588 94.2557 589.757 94.225 589.928 94.229C590.098 94.2329 590.266 94.2714 590.421 94.342C590.576 94.4126 590.715 94.5139 590.83 94.6399L597.18 100.99C597.822 101.244 598.537 101.244 599.18 100.99C599.43 100.74 599.94 100.48 600.18 99.9899L593.06 92.8699C592.841 92.6303 592.724 92.3159 592.731 91.9919C592.739 91.6679 592.871 91.3593 593.1 91.1301C593.329 90.901 593.638 90.7689 593.962 90.7614C594.286 90.7539 594.6 90.8716 594.84 91.0899L602.21 98.4599C602.465 98.5424 602.736 98.5628 603 98.5193C603.265 98.4759 603.515 98.3697 603.73 98.2099C603.977 97.9452 604.134 97.6094 604.178 97.2503C604.223 96.8912 604.154 96.5271 603.98 96.2099C602.98 93.9199 598.64 90.6199 594.83 87.5699" fill="black"/>
</g>
<path d="M568.86 128.61C568.252 127.978 567.913 127.136 567.913 126.26C567.913 125.384 568.252 124.542 568.86 123.91C569.166 123.607 569.53 123.368 569.93 123.208C570.33 123.048 570.759 122.971 571.19 122.98C571.849 122.968 572.496 123.152 573.05 123.51C573.593 123.867 574.001 124.395 574.21 125.01H572.66C572.526 124.74 572.314 124.516 572.053 124.366C571.791 124.217 571.49 124.148 571.19 124.17C570.926 124.16 570.664 124.205 570.419 124.303C570.174 124.401 569.953 124.55 569.77 124.74C569.429 125.166 569.243 125.695 569.243 126.24C569.243 126.785 569.429 127.314 569.77 127.74C569.953 127.93 570.174 128.079 570.419 128.177C570.664 128.275 570.926 128.32 571.19 128.31C571.49 128.33 571.79 128.261 572.052 128.112C572.313 127.962 572.525 127.739 572.66 127.47H574.21C574 128.082 573.592 128.607 573.05 128.96C572.496 129.317 571.849 129.501 571.19 129.49C570.762 129.507 570.336 129.437 569.936 129.286C569.535 129.135 569.17 128.905 568.86 128.61Z" fill="black"/>
<path d="M575.33 123.08H576.59V128.5H578.64V129.5H575.29L575.33 123.08Z" fill="black"/>
<path d="M579.59 129.48V123.08H580.88V129.48H579.59Z" fill="black"/>
<path d="M585.91 123.06V124.06H583.51V125.74H585.59V126.74H583.46V128.51H585.86V129.51H582.16V123.09L585.91 123.06Z" fill="black"/>
<path d="M591.42 123.06H592.71V129.48H591.42L588.52 125.04V129.48H587.23V123.06H588.52L591.42 127.5V123.06Z" fill="black"/>
<path d="M593.72 124.07V123.07H598.46V124.07H596.73V129.48H595.45V124.07H593.72Z" fill="black"/>
<path d="M603.15 123.06V124.06H600.75V125.74H602.88V126.74H600.75V128.51H603.15V129.51H599.45V123.09L603.15 123.06Z" fill="black"/>
<path d="M606.59 124.03C606.363 124.023 606.141 124.094 605.96 124.23C605.879 124.296 605.815 124.381 605.774 124.476C605.732 124.572 605.714 124.676 605.72 124.78C605.707 124.98 605.772 125.177 605.9 125.33C606.03 125.467 606.191 125.57 606.37 125.63C606.579 125.706 606.793 125.769 607.01 125.82C607.243 125.873 607.477 125.94 607.71 126.02C607.932 126.095 608.147 126.192 608.35 126.31C608.551 126.433 608.714 126.61 608.82 126.82C608.946 127.071 609.008 127.349 609 127.63C609.001 127.889 608.945 128.145 608.836 128.38C608.727 128.615 608.568 128.823 608.37 128.99C607.906 129.386 607.309 129.59 606.7 129.56C606.101 129.588 605.51 129.415 605.02 129.07C604.81 128.909 604.642 128.699 604.53 128.459C604.419 128.218 604.367 127.955 604.38 127.69H605.76C605.759 127.815 605.786 127.938 605.839 128.051C605.891 128.164 605.968 128.264 606.063 128.344C606.159 128.424 606.27 128.483 606.391 128.515C606.511 128.547 606.637 128.552 606.76 128.53C607.014 128.545 607.264 128.463 607.46 128.3C607.545 128.224 607.613 128.129 607.658 128.024C607.703 127.919 607.724 127.805 607.72 127.69C607.722 127.569 607.691 127.449 607.632 127.344C607.572 127.238 607.485 127.151 607.38 127.09C607.128 126.933 606.85 126.821 606.56 126.76C606.24 126.687 605.906 126.597 605.56 126.49C605.237 126.388 604.949 126.198 604.73 125.94C604.5 125.658 604.379 125.303 604.39 124.94C604.381 124.675 604.433 124.412 604.542 124.171C604.652 123.93 604.815 123.718 605.02 123.55C605.484 123.188 606.062 123.004 606.65 123.03C607.218 123.001 607.78 123.159 608.25 123.48C608.457 123.645 608.624 123.855 608.739 124.094C608.853 124.333 608.911 124.595 608.91 124.86H607.5C607.484 124.638 607.384 124.43 607.22 124.28C607.05 124.118 606.824 124.028 606.59 124.03Z" fill="black"/>
</g>
<defs>
<linearGradient id="paint0_linear_17_428" x1="115.64" y1="92.0059" x2="230.564" y2="92.0059" gradientUnits="userSpaceOnUse">
<stop stop-color="#02E29B"/>
<stop offset="0.02" stop-color="#02E29B"/>
<stop offset="1" stop-color="#02E29B"/>
</linearGradient>
<linearGradient id="paint1_linear_17_428" x1="254.681" y1="91.0487" x2="367.354" y2="91.0487" gradientUnits="userSpaceOnUse">
<stop stop-color="#02CAD7"/>
<stop offset="0.02" stop-color="#02CAD7"/>
<stop offset="1" stop-color="#02CAD7"/>
</linearGradient>
<linearGradient id="paint2_linear_17_428" x1="392.89" y1="93.06" x2="507.5" y2="93.06" gradientUnits="userSpaceOnUse">
<stop stop-color="#02B5E5"/>
<stop offset="1" stop-color="#02B5E5"/>
</linearGradient>
<linearGradient id="paint3_linear_17_428" x1="531.08" y1="93.06" x2="645.69" y2="93.06" gradientUnits="userSpaceOnUse">
<stop stop-color="#0173E5"/>
<stop offset="1" stop-color="#0173E5"/>
</linearGradient>
<clipPath id="clip0_17_428">
<rect width="779.42" height="186.68" fill="white"/>
</clipPath>
</defs>
</svg>
